<svg viewBox="0 0 85 85" xmlns="http://www.w3.org/2000/svg"><title>Group 10</title><g fill="none" fill-rule="evenodd"><path d="M84.48 49.767L35.233.52c-.267-.267-.624-.416-.995-.416H1.516C.743.104.104.744.104 1.516v32.722c0 .37.15.728.416.995L49.767 84.48c.267.267.624.416.995.416.372 0 .728-.15.996-.416L84.48 51.758c.55-.55.55-1.442 0-1.99z" fill="#FFF"/><g fill="#006224"><path d="M84.48 49.767L35.233.52c-.267-.267-.624-.416-.995-.416H1.516C.743.104.104.744.104 1.516v32.722c0 .37.15.728.416.995L49.767 84.48c.267.267.624.416.995.416.372 0 .728-.15.996-.416L84.48 51.758c.55-.55.55-1.442 0-1.99zm-3.002.995L50.762 81.478 2.927 33.658V2.928h30.73l47.82 47.834z"/><path d="M17.877 10.7c-3.968 0-7.193 3.224-7.193 7.192 0 3.967 3.225 7.192 7.193 7.192 3.967 0 7.192-3.225 7.192-7.192 0-3.968-3.228-7.193-7.195-7.193zm0 11.546c-2.408 0-4.37-1.962-4.37-4.37 0-2.407 1.962-4.368 4.37-4.368 2.407 0 4.37 1.96 4.37 4.37 0 2.406-1.963 4.368-4.37 4.368zm36.897 27.996c3.166 0 5.736-2.57 5.736-5.736 0-3.165-2.57-5.736-5.736-5.736-3.165 0-5.736 2.57-5.736 5.736-.014 3.165 2.57 5.736 5.736 5.736zm0-8.663c1.605 0 2.913 1.304 2.913 2.91 0 1.604-1.308 2.912-2.913 2.912-1.604 0-2.912-1.308-2.912-2.913 0-1.605 1.293-2.91 2.912-2.91zm-26.272 2.925c0 3.165 2.57 5.736 5.736 5.736 3.165 0 5.736-2.57 5.736-5.735 0-3.165-2.57-5.736-5.736-5.736-3.165 0-5.736 2.57-5.736 5.735zm5.736-2.927c1.605 0 2.912 1.305 2.912 2.91 0 1.605-1.307 2.913-2.912 2.913s-2.913-1.307-2.913-2.912c0-1.604 1.308-2.91 2.913-2.91zM44.506 62.44c.773 0 1.412-.64 1.412-1.41V28.144c0-.773-.64-1.412-1.412-1.412-.773 0-1.412.64-1.412 1.412V61.03c0 .773.64 1.412 1.412 1.412z"/></g></g></svg>