<svg viewBox="0 0 68 79" xmlns="http://www.w3.org/2000/svg"><title>Group 4</title><g fill="none" fill-rule="evenodd"><path d="M27.345 79c-2.713 0-5.24-.795-7.513-2.364C15.527 73.66 3.115 61.016 1.198 46.59c-.976-7.348.938-13.92 5.687-19.538.36-.375 7.347-7.37 15.704-6.498 3.71.387 4.953.903 5.952 1.316.947.39 1.695.7 5.747.714 4.04-.013 4.79-.324 5.734-.714 1-.413 2.245-.927 5.956-1.316 8.34-.876 15.35 6.13 15.625 6.41 4.83 5.706 6.744 12.28 5.766 19.63-1.92 14.427-14.33 27.07-18.633 30.04-2.27 1.57-4.797 2.366-7.51 2.366-3 0-5.51-.976-6.94-1.685-1.428.71-3.934 1.685-6.94 1.685zm15.94-59.45c-2.954 0-6.123-.774-9.42-2.3-.544-.25-.907-.78-.944-1.377-.01-.194-.26-4.795 3.37-8.664 4.353-4.64 12.23-6.14 23.207-4.38.792.123 1.375.805 1.375 1.61-.002 1.032-4.897 15.11-17.584 15.11z" fill="#FFF"/><g fill="#006224"><path d="M27.345 79c-2.713 0-5.24-.795-7.513-2.364C15.527 73.66 3.115 61.016 1.198 46.59c-.976-7.348.938-13.92 5.687-19.538.36-.375 7.347-7.37 15.704-6.498 3.71.387 4.953.903 5.952 1.316.947.39 1.695.7 5.747.714 4.04-.013 4.79-.324 5.734-.714 1-.413 2.245-.927 5.956-1.316 8.34-.876 15.35 6.13 15.625 6.41 4.83 5.706 6.744 12.28 5.766 19.63-1.92 14.427-14.33 27.07-18.633 30.04-2.27 1.57-4.797 2.366-7.51 2.366-3 0-5.51-.976-6.94-1.685-1.428.71-3.934 1.685-6.94 1.685zm-6.217-55.256c-6.364 0-11.775 5.45-11.83 5.506-4.05 4.795-5.713 10.514-4.864 16.91 1.75 13.17 13.426 25.144 17.25 27.79 1.718 1.184 3.622 1.785 5.66 1.785 3.002 0 5.44-1.288 6.12-1.682.505-.297 1.134-.3 1.643-.002.677.398 3.126 1.688 6.12 1.688 2.035 0 3.937-.6 5.653-1.786 3.827-2.644 15.502-14.613 17.256-27.787.85-6.396-.812-12.117-4.943-17.002-.006 0-6.08-6.08-12.87-5.36-3.242.34-4.202.736-5.05 1.087-1.423.587-2.605.947-6.982.96-4.385-.015-5.565-.374-6.99-.96-.846-.35-1.806-.748-5.05-1.086-.374-.037-.75-.055-1.12-.055z"/><path d="M34.287 24.904c-.078 0-.158-.005-.238-.018-.895-.13-1.51-.96-1.38-1.852 1.72-11.722-6.42-19.497-6.504-19.574-.658-.617-.694-1.65-.08-2.308.613-.66 1.642-.7 2.303-.085.39.36 9.486 8.976 7.512 22.44-.12.812-.818 1.397-1.615 1.397z"/><path d="M43.285 19.55c-2.954 0-6.123-.774-9.42-2.3-.544-.25-.907-.78-.944-1.377-.01-.194-.26-4.795 3.37-8.664 4.353-4.64 12.23-6.14 23.207-4.38.792.123 1.375.805 1.375 1.61-.002 1.032-4.897 15.11-17.584 15.11zm-7.053-4.824c2.496 1.035 4.864 1.56 7.05 1.56 7.96 0 12.13-7.097 13.673-10.52-8.76-1.104-14.99.16-18.287 3.68-1.783 1.902-2.294 4.072-2.436 5.28z"/></g></g></svg>