<svg viewBox="0 0 174 107" xmlns="http://www.w3.org/2000/svg"><title>icon-education-2</title><g fill="none" fill-rule="evenodd"><g transform="translate(0 16)"><rect fill="#016222" width="174" height="91" rx="3"/><path fill="#FFF" d="M4.574 86.72h165v-82h-165"/></g><path d="M10.75 8.108c-.924.596-1.674 1.97-1.674 3.088L9 105.356s18.235-8.88 37.536-8.954c19.302-.075 40.738 8.653 40.738 8.653s13.38-9.166 40.242-8.653c26.86.513 37.936 10.153 37.936 10.153V11.7c0-.55-.34-1.28-.778-1.624 0 0-11.03-10.076-37.158-10.076S87.8 9.952 87.8 9.952 74.587 1.148 47.823.556C21.06-.037 10.75 8.108 10.75 8.108z" fill="#016222"/><path d="M15.19 10.7c-.946.536-1.713 1.857-1.714 2.966l-.07 84.758s17.207-7.38 35.42-7.45c18.216-.07 38.446 8.165 38.446 8.165s12.627-8.65 37.975-8.17c25.348.482 35.8 8.58 35.8 8.58V14.1c0-.552-.36-1.273-.804-1.583 0 0-10.34-8.52-34.996-8.52-24.657 0-37.48 11.39-37.48 11.39S75.3 5.084 50.043 4.524C24.785 3.964 15.19 10.7 15.19 10.7z" fill="#FFF"/><path d="M155.613 88.56V61.98c-1.273-.69-2.318-1-3.23-1-6.316 0-6.213 14.926-31.617 22.53-11.462 3.43 23.937-.31 34.847 5.05z" fill="#729770"/><path d="M85.105 26.172v62.37c0 1.422 1.154 2.577 2.573 2.577 1.42 0 2.573-1.16 2.573-2.58V26.17c0-1.42-1.15-2.576-2.57-2.576s-2.57 1.156-2.57 2.576z" fill="#016222"/></g></svg>