<svg viewBox="0 0 80 82" xmlns="http://www.w3.org/2000/svg"><title>noun_658626</title><g fill="none" fill-rule="evenodd"><path d="M79.953 42.673c-.038-.496-.32-.94-.75-1.188l-4.117-2.36c.55-1.79 2.25-7.197 3.426-10.923.16-.505.04-1.056-.313-1.452-.36-.394-.89-.573-1.41-.47-3.49.683-8.49 1.665-10.11 1.98l-3.01-5.33c-.24-.427-.68-.71-1.16-.757-.49-.05-.97.144-1.29.515L53.2 32.03c.67-2.99 3.006-13.226 4.628-20.32.134-.577-.085-1.177-.56-1.532-.47-.356-1.11-.4-1.624-.116-2.24 1.234-5.622 3.09-7.19 3.93L41.3 1.347c-.266-.47-.764-.76-1.305-.76-.542 0-1.04.29-1.307.762l-7.13 12.64c-1.57-.84-4.96-2.7-7.2-3.93-.516-.29-1.154-.24-1.626.11s-.69.95-.56 1.53l4.65 20.33-8.053-9.36c-.32-.37-.8-.57-1.29-.52-.49.045-.92.33-1.16.753l-3.01 5.33c-1.64-.32-6.64-1.298-10.11-1.98-.53-.1-1.06.08-1.41.472-.36.394-.47.946-.32 1.45C2.65 31.9 4.35 37.305 4.9 39.1L.8 41.48c-.43.248-.712.694-.75 1.19-.037.495.173.978.562 1.287l19.14 15.22c-.328 1.332-1.295 5.11-1.925 7.554-.13.51.01 1.04.37 1.41.358.38.884.54 1.392.44L38.5 64.6v15.31c0 .83.67 1.5 1.5 1.5s1.5-.67 1.5-1.5V64.597l18.92 3.98c.1.022.2.032.3.032.405 0 .8-.17 1.084-.47.36-.38.497-.91.367-1.42-.63-2.44-1.6-6.21-1.94-7.55l19.16-15.21c.39-.31.6-.8.57-1.29z" fill="#FFF"/><path d="M79.953 42.673c-.038-.496-.32-.94-.75-1.188l-4.117-2.36c.55-1.79 2.25-7.197 3.426-10.923.16-.505.04-1.056-.313-1.452-.36-.394-.89-.573-1.41-.47-3.49.683-8.49 1.665-10.11 1.98l-3.01-5.33c-.24-.427-.68-.71-1.16-.757-.49-.05-.97.144-1.29.515L53.2 32.03c.67-2.99 3.006-13.226 4.628-20.32.134-.577-.085-1.177-.56-1.532-.47-.356-1.11-.4-1.624-.116-2.24 1.234-5.622 3.09-7.19 3.93L41.3 1.347c-.266-.47-.764-.76-1.305-.76-.542 0-1.04.29-1.307.762l-7.13 12.64c-1.57-.84-4.96-2.7-7.2-3.93-.516-.29-1.154-.24-1.626.11s-.69.95-.56 1.53l4.65 20.33-8.053-9.36c-.32-.37-.8-.57-1.29-.52-.49.045-.92.33-1.16.753l-3.01 5.33c-1.64-.32-6.64-1.298-10.11-1.98-.53-.1-1.06.08-1.41.472-.36.394-.47.946-.32 1.45C2.65 31.9 4.35 37.305 4.9 39.1L.8 41.48c-.43.248-.712.694-.75 1.19-.037.495.173.978.562 1.287l19.14 15.22c-.328 1.332-1.295 5.11-1.925 7.554-.13.51.01 1.04.37 1.41.358.38.884.54 1.392.44L38.5 64.6v15.31c0 .83.67 1.5 1.5 1.5s1.5-.67 1.5-1.5V64.597l18.92 3.98c.1.022.2.032.3.032.405 0 .8-.17 1.084-.47.36-.38.497-.91.367-1.42-.63-2.44-1.6-6.21-1.94-7.55l19.16-15.21c.39-.31.6-.8.57-1.29zM58.01 57.128c-.054.043-.105.09-.153.14-.453.476-.702 1.088-.702 1.725 0 .225 0 .302 1.513 6.15L41.5 61.533v-4.37L64.606 41.11c.68-.472.85-1.406.376-2.087-.472-.68-1.406-.848-2.088-.376L41.5 53.51V21.417c0-.83-.67-1.5-1.5-1.5s-1.5.67-1.5 1.5v6.61l-2.18-1.906c-.623-.54-1.57-.48-2.115.15-.546.63-.483 1.57.14 2.12l4.155 3.63v21.49l-8.81-6.12c-.683-.47-1.617-.3-2.09.38-.472.68-.303 1.62.377 2.09L38.5 57.17v4.37l-17.166 3.61c1.503-5.85 1.503-5.927 1.503-6.15 0-.658-.252-1.276-.71-1.743-.043-.04-.088-.08-.136-.12L4.21 42.99l2.594-1.49c.77-.45 1.25-1.276 1.25-2.156 0-.295 0-.34-2.938-9.636 8.304 1.627 8.32 1.627 8.493 1.627.72 0 1.42-.338 1.91-.93.06-.07.11-.145.15-.225l2.21-3.92L25 34.536c.034.04.07.078.11.114.534.502 1.257.79 1.984.79 1.57 0 2.85-1.28 2.85-2.852 0-.142 0-.395-.09-.698L25.84 14.3c5.444 3 5.51 3 5.956 3 .75 0 1.467-.388 1.913-1.037l.07-.113 6.21-11.015 6.25 11.048c.41.69 1.16 1.117 1.96 1.117.44 0 .5 0 5.94-2.994-4.11 18.014-4.11 18.064-4.11 18.286 0 1.573 1.28 2.852 2.85 2.852.704 0 1.38-.26 1.945-.75.056-.048.11-.1.156-.156l7.11-8.273 2.21 3.918c.05.094.113.183.19.263.66.738 1.4.892 1.9.892.17 0 .183 0 8.473-1.63-2.937 9.298-2.937 9.342-2.937 9.637 0 .886.48 1.714 1.256 2.164l2.58 1.47L58 57.12z" fill="#006224"/></g></svg>