<?xml version="1.0" encoding="UTF-8" standalone="no"?>
<svg width="174px" height="107px" viewBox="0 0 174 107" version="1.1" xmlns="http://www.w3.org/2000/svg" xmlns:xlink="http://www.w3.org/1999/xlink">
    <!-- Generator: Sketch 41.2 (35397) - http://www.bohemiancoding.com/sketch -->
    <title>icon-education-2</title>
    <desc>Created with Sketch.</desc>
    <defs>
        <path d="M120.766,83.51 C109.304,86.941 144.703,83.2 155.613,88.559 L155.613,61.979 C154.34,61.291 153.295,60.981 152.383,60.98 C146.067,60.979 146.17,75.906 120.766,83.51 L120.766,83.51 Z" id="path-1"></path>
    </defs>
    <g id="Home" stroke="none" stroke-width="1" fill="none" fill-rule="evenodd">
        <g id="nmc-caseytrees-home-v4" transform="translate(-630.000000, -1348.000000)">
            <g id="what-we-do" transform="translate(182.000000, 1180.000000)">
                <g id="action-2" transform="translate(371.000000, 0.000000)">
                    <g id="icon-education-2" transform="translate(77.000000, 168.000000)">
                        <g id="back" transform="translate(0.000000, 16.000000)">
                            <rect id="Rectangle" fill="#016222" x="0" y="0" width="174" height="91" rx="3"></rect>
                            <polygon id="Fill-2" fill="#FFFFFF" points="4.57430556 86.7196771 169.574306 86.7196771 169.574306 4.71967708 4.57430556 4.71967708"></polygon>
                        </g>
                        <g id="front" transform="translate(9.000000, 0.000000)">
                            <path d="M1.74872511,8.1079928 C0.825538806,8.70418816 0.0764339614,10.0781306 0.0755370827,11.1961353 L0,105.356934 C0,105.356934 18.2346843,96.4763855 37.5361328,96.4018555 C56.8375814,96.3273255 78.274365,105.054688 78.274365,105.054688 C78.274365,105.054688 91.6547852,95.8891602 118.515625,96.4018555 C145.376465,96.9145508 156.452148,106.555176 156.452148,106.555176 L156.452148,11.7013344 C156.452148,11.1514415 156.111964,10.4193146 155.673774,10.0759453 C155.673774,10.0759453 144.643555,2.84217094e-13 118.515625,2.84217094e-14 C92.3876953,-2.27373675e-13 78.8004622,9.95178458 78.8004622,9.95178458 C78.8004622,9.95178458 65.5869141,1.1484375 38.8232422,0.555664063 C12.0595703,-0.037109375 1.74872511,8.1079928 1.74872511,8.1079928 Z" id="Path-2" fill="#016222"></path>
                            <path d="M6.18854568,10.7004705 C5.24363028,11.2360166 4.47688073,12.5570581 4.47595012,13.6659812 L4.40482071,98.4244052 C4.40482071,98.4244052 21.6127308,91.0439106 39.8273368,90.9735773 C58.0419429,90.903244 78.2716458,99.1391783 78.2716458,99.1391783 C78.2716458,99.1391783 90.8986298,90.4897513 116.246967,90.9735773 C141.595303,91.4574033 152.047328,99.5551758 152.047328,99.5551758 L152.047328,14.1036391 C152.047328,13.5509138 151.68647,12.8304115 151.242715,12.5195704 C151.242715,12.5195704 140.903662,4 116.246967,4 C91.5902706,4 78.7681191,15.391411 78.7681191,15.391411 C78.7681191,15.391411 66.2986107,5.0837703 41.0419706,4.52437526 C15.7853304,3.96498021 6.18854568,10.7004705 6.18854568,10.7004705 Z" id="Path-2" fill="#FFFFFF"></path>
                        </g>
                        <mask id="mask-2" fill="white">
                            <use xlink:href="#path-1"></use>
                        </mask>
                        <use id="Clip-19" fill="#729770" xlink:href="#path-1"></use>
                        <path d="M85.1051,26.1717 L85.1051,88.5427 C85.1051,89.9637 86.2591,91.1187 87.6781,91.1187 C89.0971,91.1187 90.2511,89.9637 90.2511,88.5427 L90.2511,26.1717 C90.2511,24.7507 89.0971,23.5957 87.6781,23.5957 C86.2591,23.5957 85.1051,24.7507 85.1051,26.1717 Z" id="Fill-16" fill="#016222"></path>
                    </g>
                </g>
            </g>
        </g>
    </g>
</svg>