<svg viewBox="0 0 13 13" xmlns="http://www.w3.org/2000/svg"><title>icon-magnifying-glass</title><path d="M9 5.5c0-.964-.342-1.788-1.027-2.473C7.288 2.342 6.463 2 5.5 2c-.964 0-1.788.342-2.473 1.027C2.342 3.712 2 4.537 2 5.5c0 .964.342 1.788 1.027 2.473C3.712 8.658 4.537 9 5.5 9c.964 0 1.788-.342 2.473-1.027C8.658 7.288 9 6.463 9 5.5zm4 6.5c0 .27-.1.505-.297.703-.198.198-.432.297-.703.297-.28 0-.516-.1-.703-.297l-2.68-2.672c-.932.648-1.97.97-3.117.97-.745 0-1.457-.144-2.137-.433-.68-.29-1.265-.68-1.758-1.17-.492-.494-.882-1.08-1.17-1.76C.145 6.957 0 6.247 0 5.5c0-.745.145-1.457.434-2.137.29-.68.68-1.265 1.17-1.758.494-.492 1.08-.882 1.76-1.17C4.044.145 4.754 0 5.5 0c.745 0 1.457.145 2.137.434.68.29 1.265.68 1.758 1.17.492.494.882 1.08 1.17 1.76.29.68.435 1.39.435 2.136 0 1.146-.323 2.185-.97 3.117l2.68 2.68c.194.193.29.427.29.703z" fill-rule="evenodd"/></svg>