<svg viewBox="0 0 89 89" xmlns="http://www.w3.org/2000/svg"><title>Group 7</title><g fill="none" fill-rule="evenodd"><path d="M45 21c-13.23 0-24 10.77-24 24s10.77 24 24 24 24-10.77 24-24-10.77-24-24-24z" fill="#FFF"/><path d="M44.78.97c-1.03.11-1.8.993-1.78 2.03v12c-.01.72.37 1.392.992 1.756.623.363 1.393.363 2.016 0C46.63 16.392 47.01 15.72 47 15V3c.012-.576-.224-1.13-.65-1.518-.424-.39-.996-.576-1.57-.513zM15.095 13.28c-.77.076-1.428.59-1.69 1.318-.26.73-.077 1.543.47 2.09l8.5 8.5c.482.596 1.26.865 2.007.694.747-.172 1.33-.755 1.502-1.5.17-.748-.098-1.526-.695-2.007l-8.47-8.5c-.43-.434-1.03-.652-1.63-.594zm59.375 0c-.453.058-.872.268-1.19.595l-8.468 8.5c-.596.48-.865 1.26-.694 2.006.172.75.755 1.33 1.5 1.51.748.17 1.526-.1 2.007-.69l8.5-8.5c.61-.602.766-1.525.392-2.296-.375-.77-1.198-1.215-2.048-1.11zM45 21c-13.23 0-24 10.77-24 24s10.77 24 24 24 24-10.77 24-24-10.77-24-24-24zm0 4c11.07 0 20 8.93 20 20s-8.93 20-20 20-20-8.93-20-20 8.93-20 20-20zM2.812 43c-.714.033-1.357.445-1.685 1.08-.328.637-.293 1.4.094 2 .39.603 1.07.954 1.78.92h12c.72.01 1.4-.37 1.76-.992.37-.623.37-1.393 0-2.016-.37-.622-1.04-1.002-1.76-.992H3c-.062-.003-.125-.003-.188 0zm72 0c-.714.033-1.357.445-1.685 1.08-.328.637-.293 1.4.094 2 .39.603 1.07.954 1.78.92h12c.72.01 1.4-.37 1.76-.992.37-.623.37-1.393 0-2.016-.37-.622-1.04-1.002-1.76-.992H75c-.062-.003-.125-.003-.188 0zm-51.25 21.188c-.45.056-.87.266-1.187.593l-8.5 8.5c-.52.51-.725 1.26-.538 1.95.186.7.736 1.25 1.438 1.43.7.18 1.445-.03 1.944-.56l8.46-8.47c.63-.59.8-1.52.43-2.31-.37-.78-1.2-1.24-2.06-1.13zm42.438 0c-.78.075-1.44.598-1.697 1.337-.255.74-.056 1.56.51 2.1l8.468 8.47c.5.523 1.25.737 1.95.558.7-.178 1.25-.722 1.44-1.422.19-.69-.02-1.44-.54-1.95l-8.5-8.5c-.42-.43-1.02-.65-1.62-.59zm-21.22 8.78c-1.03.114-1.802.996-1.78 2.032v12c-.01.72.37 1.392.992 1.756.623.363 1.393.363 2.016 0C46.63 88.392 47.01 87.72 47 87V75c.012-.576-.224-1.13-.65-1.518-.424-.39-.996-.576-1.57-.513z" fill="#006224"/></g></svg>