<svg viewBox="0 0 82 82" xmlns="http://www.w3.org/2000/svg"><title>Group 8</title><g fill="none" fill-rule="evenodd"><path d="M80.81 21.16L60.835 1.185c-.525-.525-1.455-.525-1.98 0L1.19 58.845c-.545.545-.545 1.435 0 1.98L21.165 80.8c.275.275.63.41.99.41s.715-.135.99-.41l12.02-12.02L47.73 56.215l18.85-18.85L80.805 23.14c.55-.55.55-1.435.005-1.98z" fill="#FFF"/><path d="M80.81 21.16L60.835 1.185c-.525-.525-1.455-.525-1.98 0L1.19 58.845c-.545.545-.545 1.435 0 1.98L21.165 80.8c.275.275.63.41.99.41s.715-.135.99-.41l12.02-12.02L47.73 56.215l18.85-18.85L80.805 23.14c.55-.55.55-1.435.005-1.98zm-8.935 6.95l-4.01-4.01c-.545-.545-1.435-.545-1.98 0-.545.545-.545 1.435 0 1.98l4.01 4.01-4.305 4.305-4.01-4.01c-.545-.545-1.435-.545-1.98 0-.545.545-.545 1.435 0 1.98l4.01 4.01-4.305 4.305-8.08-8.08c-.545-.545-1.435-.545-1.98 0-.545.545-.545 1.435 0 1.98l8.08 8.08-4.3 4.305-4.01-4.01c-.545-.545-1.435-.545-1.98 0-.545.545-.545 1.435 0 1.98l4.01 4.01-4.3 4.3-4.01-4.01c-.545-.545-1.435-.545-1.98 0-.545.545-.545 1.435 0 1.98l4.01 4.01-4.305 4.305-8.08-8.08c-.545-.545-1.435-.545-1.98 0-.545.545-.545 1.435 0 1.98l8.08 8.08-4.305 4.305-4.01-4.015c-.545-.545-1.435-.545-1.98 0-.545.545-.545 1.435 0 1.98l4.01 4.01-4.305 4.305-4.01-4.01c-.545-.545-1.435-.545-1.98 0-.545.545-.545 1.435 0 1.98l4.01 4.01-3.755 3.755L4.16 59.835l55.685-55.68L77.84 22.15l-5.965 5.96z" fill="#006224"/></g></svg>