<svg viewBox="0 0 151 148" xmlns="http://www.w3.org/2000/svg"><title>Advocacy</title><g fill="none" fill-rule="evenodd"><path d="M122.66 125.57c2.19 1.653 4.37 2.492 6.484 2.492 2.405 0 4.493-1.094 5.882-3.08 1.17-1.675 1.762-3.86 1.762-6.497V80.43l11.906-4.457c1.388-.52 2.306-1.842 2.306-3.32V53.15c0-1.478-.918-2.8-2.306-3.32l-11.906-4.456V9.558c0-6.603-3.832-9.558-7.628-9.558-2.116 0-4.304.842-6.5 2.502-.06.046-.12.094-.178.143L92.71 28.285c-4.865 3.658-9.163 5.363-13.515 5.363H14.06C6.437 33.648 0 40.423 0 48.443V79.6c0 7.9 6.306 14.328 14.06 14.328h5.924l6.695 50.112c.23 1.76 1.74 3.076 3.52 3.076h28.42c1.02 0 1.995-.442 2.67-1.21.675-.77.984-1.792.85-2.806l-6.57-49.172h23.62c4.173 0 8.48 1.776 13.55 5.59l29.72 25.895c.065.055.13.107.195.156z" fill="#FFF"/><path d="M122.66 125.57c2.19 1.653 4.37 2.492 6.484 2.492 2.405 0 4.493-1.094 5.882-3.08 1.17-1.675 1.762-3.86 1.762-6.497V80.43l11.906-4.457c1.388-.52 2.306-1.842 2.306-3.32V53.15c0-1.478-.918-2.8-2.306-3.32l-11.906-4.456V9.558c0-6.603-3.832-9.558-7.628-9.558-2.116 0-4.304.842-6.5 2.502-.06.046-.12.094-.178.143L92.71 28.285c-4.865 3.658-9.163 5.363-13.515 5.363H14.06C6.437 33.648 0 40.423 0 48.443V79.6c0 7.9 6.306 14.328 14.06 14.328h5.924l6.695 50.112c.23 1.76 1.74 3.076 3.52 3.076h28.42c1.02 0 1.995-.442 2.67-1.21.675-.77.984-1.792.85-2.806l-6.57-49.172h23.62c4.173 0 8.48 1.776 13.55 5.59l29.72 25.895c.065.055.13.107.195.156zm21.234-69.962v14.59l-7.106 2.66v-19.91l7.106 2.66zM7.106 79.598V48.444c0-4.104 3.25-7.703 6.953-7.703H67.5v46.1H14.06c-3.835 0-6.954-3.243-6.954-7.234zm47.46 60.426H33.31l-6.158-46.096h21.255l6.16 46.096zm42.568-46.087c-4.036-3.048-10.284-7.1-17.94-7.1h-4.582V40.74h4.583c5.926 0 11.778-2.248 17.893-6.868.06-.046.117-.094.176-.142l29.77-25.637c1.286-.952 1.995-1 2.11-1.033.14.12.538.835.538 2.498v108.927c0 1.707-.43 2.418-.48 2.484h-.058c-.13 0-.833-.05-2.105-.99L97.32 94.09c-.064-.055-.126-.107-.192-.156z" fill="#006224"/><path d="M10 68l16 16h-8c-4.418 0-8-3.59-8-8v-8z" fill="#739971"/></g></svg>