<svg viewBox="0 0 88 88" xmlns="http://www.w3.org/2000/svg"><title>Group 9</title><g fill="none" fill-rule="evenodd"><path d="M44 88c-1.68 0-3.29-.9-4.556-2.546-2.183-2.84-3.187-7.467-3.014-13.2-3.863 7.17-8.35 10.497-11.918 10.497-2.13 0-3.83-1.17-4.677-3.22-1.213-2.94-.66-8.14 3.482-14.84-4.262 2.65-8.246 4.07-11.607 4.07-3.586 0-6.045-1.75-6.41-4.55-.483-3.64 2.74-8.49 10.43-12.63-7.363.24-13.08-1.7-15.02-5.075-.935-1.61-.935-3.395 0-5.006 1.94-3.38 7.622-5.284 15.036-5.076-7.69-4.14-10.913-8.974-10.428-12.63.364-2.805 2.824-4.555 6.41-4.555 3.36 0 7.344 1.42 11.59 4.052-4.142-6.703-4.696-11.9-3.483-14.845.848-2.044 2.546-3.222 4.677-3.222 3.568 0 8.055 3.326 11.918 10.498-.173-5.733.83-10.36 3.014-13.2C40.71.903 42.32 0 44 0c1.68 0 3.29.9 4.556 2.546 2.183 2.84 3.187 7.467 3.014 13.2C55.433 8.576 59.92 5.25 63.488 5.25c2.13 0 3.83 1.177 4.677 3.22 1.213 2.946.66 8.143-3.482 14.847 4.262-2.634 8.246-4.054 11.59-4.054 3.585 0 6.045 1.75 6.41 4.556.484 3.63-2.738 8.48-10.43 12.62.4-.02.797-.02 1.178-.02 10.05 0 14.54 3.81 14.54 7.583 0 3.777-4.48 7.59-14.53 7.605-.393-.05-.78 0-1.172-.017 7.69 4.14 10.913 8.973 10.428 12.63-.363 2.805-2.823 4.555-6.41 4.555-3.36 0-7.326-1.42-11.59-4.056 4.143 6.705 4.697 11.9 3.484 14.847-.85 2.043-2.547 3.22-4.678 3.22-3.567 0-8.054-3.327-11.917-10.5.172 5.735-.83 10.36-3.015 13.2C47.29 87.1 45.68 88 44 88z" fill="#FFF"/><g fill="#006224"><path d="M44 88c-1.68 0-3.29-.9-4.556-2.546-2.183-2.84-3.187-7.467-3.014-13.2-3.863 7.17-8.35 10.497-11.918 10.497-2.13 0-3.83-1.17-4.677-3.22-1.213-2.94-.66-8.14 3.482-14.84-4.262 2.65-8.246 4.07-11.607 4.07-3.586 0-6.045-1.75-6.41-4.55-.483-3.64 2.74-8.49 10.43-12.63-7.363.24-13.08-1.7-15.02-5.075-.935-1.61-.935-3.395 0-5.006 1.94-3.38 7.622-5.284 15.036-5.076-7.69-4.14-10.913-8.974-10.428-12.63.364-2.805 2.824-4.555 6.41-4.555 3.36 0 7.344 1.42 11.59 4.052-4.142-6.703-4.696-11.9-3.483-14.845.848-2.044 2.546-3.222 4.677-3.222 3.568 0 8.055 3.326 11.918 10.498-.173-5.733.83-10.36 3.014-13.2C40.71.903 42.32 0 44 0c1.68 0 3.29.9 4.556 2.546 2.183 2.84 3.187 7.467 3.014 13.2C55.433 8.576 59.92 5.25 63.488 5.25c2.13 0 3.83 1.177 4.677 3.22 1.213 2.946.66 8.143-3.482 14.847 4.262-2.634 8.246-4.054 11.59-4.054 3.585 0 6.045 1.75 6.41 4.556.484 3.63-2.738 8.48-10.43 12.62.4-.02.797-.02 1.178-.02 10.05 0 14.54 3.81 14.54 7.583 0 3.777-4.48 7.59-14.53 7.605-.393-.05-.78 0-1.172-.017 7.69 4.14 10.913 8.973 10.428 12.63-.363 2.805-2.823 4.555-6.41 4.555-3.36 0-7.326-1.42-11.59-4.056 4.143 6.705 4.697 11.9 3.484 14.847-.85 2.043-2.547 3.22-4.678 3.22-3.567 0-8.054-3.327-11.917-10.5.172 5.735-.83 10.36-3.015 13.2C47.29 87.1 45.68 88 44 88zm-2.65-28.6c-3.5 13.044-2.114 21.117.346 24.32.502.66 1.317 1.44 2.304 1.44.987 0 1.802-.78 2.304-1.44 2.46-3.203 3.846-11.276.346-24.32l2.737-.728c4.175 15.59 10.706 21.256 14.084 21.256.97 0 1.67-.485 2.07-1.456 1.54-3.707-1.42-12.316-11.55-22.45l2.01-2.01c11.05 11.053 18.328 11.92 20.285 11.92 1.005 0 3.36-.21 3.604-2.08.467-3.5-5.82-10.307-21.238-14.43l.725-2.737c5.2 1.386 9.928 2.096 14.068 2.096 8.526 0 11.696-2.92 11.696-4.76 0-1.83-3.17-4.74-11.694-4.74-4.14 0-8.87.71-14.066 2.1l-.726-2.736C74.06 34.508 80.33 27.7 79.88 24.2c-.244-1.887-2.6-2.08-3.605-2.08-1.957 0-9.233.868-20.285 11.92l-2.01-2.01C64.11 21.897 67.06 13.288 65.53 9.58c-.398-.97-1.09-1.456-2.06-1.456-3.38 0-9.91 5.665-14.085 21.256l-2.738-.728c3.5-13.044 2.115-21.117-.345-24.32-.502-.66-1.317-1.44-2.304-1.44-.985 0-1.8.78-2.302 1.44-2.46 3.203-3.847 11.276-.347 24.32l-2.74.728C34.435 13.79 27.89 8.124 24.53 8.124c-.97 0-1.664.485-2.062 1.456-1.542 3.707 1.42 12.316 11.554 22.45l-2.01 2.01C20.962 22.986 13.686 22.12 11.73 22.12c-1.005 0-3.36.21-3.604 2.08-.467 3.5 5.82 10.307 21.238 14.43l-.727 2.737c-5.2-1.387-9.927-2.097-14.067-2.097-6.844 0-10.413 1.976-11.383 3.673-.415.728-.415 1.438 0 2.166.97 1.69 4.556 3.67 11.382 3.67 4.14 0 8.86-.71 14.06-2.1l.72 2.73C13.94 53.54 7.67 60.346 8.12 63.846c.243 1.89 2.6 2.08 3.604 2.08 1.957 0 9.233-.867 20.285-11.92l2.01 2.01C23.884 66.153 20.94 74.762 22.464 78.47c.398.97 1.09 1.456 2.06 1.456 3.38 0 9.91-5.665 14.085-21.256l2.74.73z"/><path d="M44 61.028c-9.39 0-17.028-7.64-17.028-17.028 0-9.39 7.64-17.028 17.028-17.028 9.39 0 17.028 7.64 17.028 17.028 0 9.39-7.64 17.028-17.028 17.028zm0-31.215c-7.83 0-14.187 6.374-14.187 14.187 0 7.83 6.374 14.187 14.187 14.187S58.187 51.813 58.187 44c0-7.83-6.357-14.187-14.187-14.187z"/></g></g></svg>