<svg viewBox="0 0 21 17" xmlns="http://www.w3.org/2000/svg"><title>twitter-icon</title><path d="M20.45 1.924c-.736.326-1.527.547-2.357.646.848-.508 1.498-1.312 1.805-2.27-.793.47-1.67.812-2.606.996C16.542.498 15.477 0 14.297 0 11.647 0 9.7 2.472 10.3 5.038 6.89 4.868 3.866 3.233 1.842.75c-1.074 1.846-.557 4.26 1.27 5.48-.672-.022-1.305-.207-1.858-.514-.045 1.9 1.318 3.68 3.29 4.075-.577.16-1.21.196-1.852.07.522 1.634 2.037 2.82 3.833 2.85C4.8 14.066 2.627 14.67.45 14.41c1.816 1.164 3.973 1.844 6.29 1.844 7.618 0 11.922-6.435 11.663-12.206.8-.578 1.497-1.3 2.047-2.124z" fill-rule="evenodd"/></svg>