<svg viewBox="0 0 80 78" xmlns="http://www.w3.org/2000/svg"><title>Group 2</title><g fill="none" fill-rule="evenodd"><path d="M0 75.58c0 .886.694 1.58 1.58 1.58h7.35c.885 0 1.58-.694 1.58-1.58v-2.218l3.24-2.54c2.118-1.59 4.737-2.46 7.385-2.46.35 0 .703.015 1.05.045 3.904.278 6.1.53 7.336.836l8.17 1.733c1.76.366 3.55.552 5.31.552 2.12 0 4.18-.267 6.11-.793 1.25-.314 2.3-.704 3.2-1.197l25.43-14.122c.98-.528 1.71-1.414 2-2.434.36-1.15.26-2.247-.29-3.27-1.24-2.25-3.29-3.383-6.27-3.46-1.62 0-3.21.337-4.83 1.033l-11 4.638-.2-.407c-.24-.494-.56-.936-.9-1.278-1.04-1.04-2.38-1.592-3.87-1.592h-7.09V41.76l.45-.03c6.32-.435 12.19-2.8 16.52-6.662 4.34-3.87 6.73-8.9 6.73-14.163C68.99 9.378 57.64 0 43.7 0S18.418 9.378 18.418 20.905c0 5.27 2.38 10.302 6.703 14.164 4.33 3.86 10.2 6.22 16.55 6.66l.45.03v6.6l-.59-.15c-1.97-.48-4.85-1.34-8.54-2.58-3.19-1.1-6.27-1.53-9.14-1.3-1.57.08-3.01.33-4.18.72-2.26.75-5.82 2.72-8.41 4.25l-.61.36-.11-.7c-.13-.78-.78-1.33-1.583-1.33H1.58c-.886 0-1.58.69-1.58 1.58v26.35z" fill="#FFF"/><path d="M3.158 50.813H7.35V73.92H3.645v-.404H3.16V50.813zm7.35 2.498l.27-.13c.33-.16.714-.4 1-.61l.046-.03.143-.08c2.575-1.49 6.465-3.75 8.542-4.42h.02c.89-.24 2-.5 3.4-.59.37-.02.76-.032 1.14-.032 2.2 0 4.42.4 6.81 1.22 4 1.335 9.62 3.11 12.06 3.11h8.42c1.25 0 2.3 1.018 2.3 2.22v.08c0 .63-.22 1.16-.64 1.585-.4.393-1 .637-1.59.637h-16c-.888 0-1.58.69-1.58 1.58 0 .883.692 1.576 1.58 1.576l15.942.164c1.485 0 2.823-.55 3.864-1.59.69-.697 1.22-1.61 1.44-2.5l.06-.24 11.78-5.05c1.23-.526 2.37-.782 3.49-.782 2.2 0 3.03.88 3.53 1.766.22.247.253.44.253.62 0 .28-.17.51-.503.68L50.87 66.68c-.653.375-1.547.715-2.512.956-1.683.457-3.47.69-5.28.69-1.57 0-3.15-.176-4.688-.522l-8.17-1.735c-1.49-.32-3.94-.55-7.79-.9-.34-.02-.692-.04-1.044-.04-3.443 0-6.706 1.064-9.44 3.08l-1.436 1.08V53.31zm31.174-14.74c-5.478-.41-10.543-2.41-14.26-5.64-3.77-3.27-5.846-7.54-5.846-12.02 0-9.79 9.924-17.75 22.124-17.75s22.125 7.96 22.125 17.75c0 4.45-2.072 8.71-5.834 11.99-3.71 3.25-8.75 5.27-14.18 5.68l-.52.04v-2.49l9.46-4.26c.81-.37 1.15-1.23.83-2.09-.28-.58-.82-.93-1.45-.93-.21 0-.43.04-.64.12l-8.104 3.69v-9.92c0-.88-.69-1.58-1.58-1.58-.882 0-1.576.7-1.576 1.58v3.78l-3.1-2.32c-.27-.2-.603-.306-.954-.306-.508 0-.976.23-1.256.616-.515.7-.375 1.71.304 2.21l4.99 3.7v8.2l-.52-.04zM0 75.58c0 .886.694 1.58 1.58 1.58h7.35c.885 0 1.58-.694 1.58-1.58v-2.218l3.24-2.54c2.118-1.59 4.737-2.46 7.385-2.46.35 0 .703.015 1.05.045 3.904.278 6.1.53 7.336.836l8.17 1.733c1.76.366 3.55.552 5.31.552 2.12 0 4.18-.267 6.11-.793 1.25-.314 2.3-.704 3.2-1.197l25.43-14.122c.98-.528 1.71-1.414 2-2.434.36-1.15.26-2.247-.29-3.27-1.24-2.25-3.29-3.383-6.27-3.46-1.62 0-3.21.337-4.83 1.033l-11 4.638-.2-.407c-.24-.494-.56-.936-.9-1.278-1.04-1.04-2.38-1.592-3.87-1.592h-7.09V41.76l.45-.03c6.32-.435 12.19-2.8 16.52-6.662 4.34-3.87 6.73-8.9 6.73-14.163C68.99 9.378 57.64 0 43.7 0S18.418 9.378 18.418 20.905c0 5.27 2.38 10.302 6.703 14.164 4.33 3.86 10.2 6.22 16.55 6.66l.45.03v6.6l-.59-.15c-1.97-.48-4.85-1.34-8.54-2.58-3.19-1.1-6.27-1.53-9.14-1.3-1.57.08-3.01.33-4.18.72-2.26.75-5.82 2.72-8.41 4.25l-.61.36-.11-.7c-.13-.78-.78-1.33-1.583-1.33H1.58c-.886 0-1.58.69-1.58 1.58v26.35z" fill="#006224"/></g></svg>