<svg viewBox="0 0 161 161" xmlns="http://www.w3.org/2000/svg"><title>Planting</title><g fill="none" fill-rule="evenodd"><path d="M80.5 116c14.663 0 26.646-21.283 27.456-48.1.03-.96.215-1.99.044-2.9-5.412-28.867-20.172-59-27.5-59C72.486 9.607 56.9 37.975 53 65c-3.9 27.025 12.312 51 27.5 51zm58.394-8c10.693 0 19.43-15.52 20.022-35.076.02-.7.157-1.45.032-2.114-3.947-21.05-14.71-43.024-20.054-43.024-5.843 2.63-17.21 23.316-20.053 43.024C116 90.517 127.82 108 138.9 108zm-116 0c10.693 0 19.43-15.52 20.022-35.076.02-.7.157-1.45.032-2.114C39 49.76 28.238 27.786 22.894 27.786 17.05 30.416 5.684 51.102 2.84 70.81-.003 90.517 11.82 108 22.895 108z" fill="#FFF"/><g fill="#006224"><path d="M80.5 122.27c-8.49-.34-15.96-4.076-21.394-11.207-9.168-11.546-11.885-30.563-7.81-49.24C58.088 31.6 65.22.698 80.16.698c15.282 0 22.073 31.242 28.865 61.125 4.415 18.677 1.358 37.694-7.81 49.24-4.755 7.13-12.225 10.866-20.715 11.206zm0-115.12c-9.848 0-17.32 33.62-22.412 56.03-3.736 16.64-1.36 33.96 6.452 43.807 4.414 5.434 9.508 8.49 15.96 8.83 6.452-.34 11.885-3.057 15.96-8.83 7.81-9.847 10.188-27.166 6.453-43.806C97.82 40.77 90.348 7.15 80.5 7.15z"/><path d="M77.105 118.873h6.792v38.033h-6.792z"/></g><g fill="#006224"><path d="M138.23 110.383c-6.113-.34-11.547-3.056-15.282-8.15-6.452-8.15-8.49-21.393-5.433-34.298 5.772-25.468 10.527-42.448 20.714-42.448s14.94 16.64 20.71 42.448c3.05 12.905 1.02 26.148-5.44 34.298-3.74 5.094-8.83 8.15-15.28 8.15zm0-78.104c-5.774 0-11.207 24.11-14.263 37.35-2.377 10.86-1.02 22.41 4.075 28.86 2.716 3.39 6.112 5.43 10.187 5.43 4.07 0 7.47-2.04 10.18-5.437 5.09-6.45 6.79-17.998 4.07-28.865-2.72-13.244-8.15-37.355-14.266-37.355z"/><path d="M135.173 106.988h6.792v22.073h-6.792z"/></g><g fill="#006224"><path d="M22.77 110.383c-6.112-.34-11.545-3.056-15.28-8.15C1.037 94.083-1 80.84 1.717 67.935 7.83 42.467 12.244 25.487 22.77 25.487c10.188 0 14.942 16.64 20.715 42.448 3.057 12.905 1.02 26.148-5.433 34.298-4.075 5.094-9.17 8.15-15.28 8.15zm0-78.104c-5.77 0-11.204 24.11-14.26 37.35C5.792 80.5 7.49 91.7 12.583 98.15c2.717 3.396 6.113 5.434 10.188 5.434 4.08 0 7.48-2.038 10.19-5.434 5.1-6.452 6.79-17.998 4.08-28.864-3.06-12.904-8.49-37.014-14.26-37.014z"/><path d="M19.375 106.988h6.792v22.073h-6.792z"/></g><path fill="#006224" d="M130.42 128.042h15.96v6.792h-15.96zm-115.8 0h15.96v6.792H14.62zm58.07 25.808h15.96v6.792H72.69z"/><path d="M79.094 108.69c4.5 2.597 11.624-1.316 15.91-8.74 4.287-7.424 4.114-15.55-.387-18.148m-73.46 16.385c2.743 1.584 7.084-.8 9.696-5.325 2.613-4.525 2.507-9.476-.236-11.06M138 98.385c2.743 1.584 7.084-.8 9.696-5.325s2.507-9.477-.236-11.06" fill="#739971"/></g></svg>