<svg viewBox="0 0 252 81" xmlns="http://www.w3.org/2000/svg" xmlns:xlink="http://www.w3.org/1999/xlink"><title>Casey Trees white</title><defs><path id="a" d="M.43 7.414h16.36V.38H.43v7.034z"/><path id="c" d="M.258 7.414h43.344V.278H.258v7.136z"/><path id="e" d="M.278 7.414H18.96V.38H.28v7.034z"/></defs><g fill="none" fill-rule="evenodd"><path d="M85.698 51.683h-3.714v2.07c-2.693.727-4.602 3.137-4.602 6.002l-.063 2.952h-8.3l-.01 5.012-9.68-.02.32 1.47 10.84.01s-.01-3.94-.01-5.01h8.25l.1-4.41c0-2.38 1.67-4.36 3.99-4.74l.61-.1v-1.78h1.51v1.78l.6.1c2.28.4 3.94 2.38 3.94 4.71l.06 4.42h8.24v4.99h151.23V67.7H99.26v-5h-8.256c-.01-.935-.036-2.963-.036-2.963 0-2.824-1.884-5.237-4.544-5.987v-2.07h-.728" fill="#FFF"/><path d="M36.133 51.555s.66 14.847.712 16.15c1.12.002 10.18.006 10.18.006l-.34 1.48-11.244-.01-.75-17.16-1.45-2.39-1.42 2.4-.76 17.18h-9.13v-6.39h-2.9l-.01-2.91H8.61v2.91H5.647v6.38H0l.01-1.47h4.176v-6.38H7.15v-2.91h13.32s.005 2.09.005 2.91h2.912v6.39h6.27c.052-1.3.71-16.17.71-16.17l2.885-4.71 2.88 4.72" fill="#FFFFFE"/><path d="M118.39 47.71c-.945-3.647-2.962-4.63-6.05-4.63-5.674 0-8.195 4.312-8.195 9.29 0 6.117 3.12 10.177 8.226 10.177 3.53 0 5.17-1.713 6.72-5.04l.79.093c-.41 1.364-1.1 3.9-1.6 5.105-.88.222-3.72.888-5.92.888-7.97 0-11.31-5.454-11.31-10.494 0-6.54 5.01-11.07 11.92-11.07 2.68 0 4.79.63 5.68.82.26 1.74.38 3.14.57 4.79l-.79.06m10.78 7.73c-.69.28-2.58 1.14-3.18 1.46-1.1.6-1.64 1.23-1.64 2.38 0 1.68 1.14 2.47 2.08 2.47.73 0 1.89-.57 2.75-1.24v-5.07zm1.74 8.05c-1.07-.19-1.54-1.27-1.73-2.06-1.32.85-3.02 2.06-3.68 2.06-2.3 0-3.78-1.9-3.78-3.65 0-1.46.76-2.54 2.4-3.21 1.55-.64 4.13-1.56 5.08-2.22v-1.08c0-1.97-.91-3.01-2.58-3.01-1.54 0-2.2 1.33-2.55 2.66-.09.38-.38.6-.72.6-.5 0-1.35-.51-1.35-1.08 0-.42.38-.86 1.07-1.37.76-.57 2.62-1.78 4.86-2.19.89 0 1.86.29 2.49.76 1.04.82 1.2 1.93 1.2 3.07v7.14c0 1.17.41 1.71.88 1.71.25 0 .79-.13 1.36-.42l.29.7-3.19 1.55zm6.12-4.82c.5 1.83 1.92 3.86 3.78 3.86 1.14 0 2.24-.8 2.24-2.35 0-1.3-.73-2.22-2.46-2.98-2.05-.92-3.78-2-3.78-4.09 0-2.28 1.95-4.16 4.69-4.16 1.14 0 2.02.26 2.65.54.32.73.63 2.5.7 3.04l-.75.19c-.94-2.1-1.95-2.83-3.15-2.83-1.42 0-2.08 1.11-2.08 2.16 0 1.3 1.36 2.18 2.74 2.75 2.3.95 3.82 2.19 3.82 4.31 0 2.91-2.68 4.34-5.07 4.34-1.61 0-3.06-.67-3.66-1.17-.19-.48-.37-2.22-.37-3.46l.72-.19m19.35-4.82c.44 0 .57-.16.57-1.02 0-1.27-1.01-2.79-2.65-2.79-1.51 0-3.15 1.55-3.4 3.9l5.48-.1zm3.15 6.53c-1.73 2.47-3.91 3.11-4.76 3.11-4 0-6.39-3.01-6.39-6.69 0-4.25 2.96-7.83 6.74-7.83 2.46 0 4.51 2.28 4.51 4.41 0 .98-.09 1.04-.66 1.17-.44.09-4.35.41-8.25.54-.09 4.72 2.87 6.37 5.14 6.37 1.04 0 1.99-.39 3.25-1.53l.44.44zm8.29-10.31l-.95.12c-.69.09-.66.6-.35 1.49l2.75 7.8c.79-1.78 2.71-6.79 3.09-7.9.35-.98.28-1.27-.44-1.37l-1.17-.16v-.73h5.55V50c-1.7.315-1.73.44-2.71 2.31-.85 1.587-1.98 4.186-4 8.97-2.08 4.95-2.9 6.947-3.37 8.627-.16.64-.63.8-.98.8-.78 0-1.54-.695-1.57-1.455.03-.44.38-.73.88-1.11.89-.63 1.61-1.58 2.18-2.76.45-.95.85-1.93.98-2.31.1-.29.1-.67-.03-1.05-1.07-3.36-2.55-7.23-3.47-9.67-.73-1.97-.82-2.13-2.78-2.35v-.73h6.4v.73m21.3 8.43c0 3.458.26 3.68 3.35 3.87v.73h-9.21v-.73c2.97-.19 3.22-.41 3.22-3.865v-14.9H185c-2.807 0-3.658.41-4.13 1.015-.348.442-.726 1.33-1.104 2.725h-.787c.12-1.935.31-3.965.37-5.58h.44c.47.73.79.79 1.64.79h12.92c.82 0 .97-.19 1.48-.795h.44c.03 1.33.19 3.646.34 5.484l-.79.093c-.32-1.52-.66-2.41-1.13-2.92-.54-.6-1.52-.82-3.47-.82h-2.11V58.5m12.16 1.74c0 1.78.15 1.94 2.61 2.13v.73h-7.25v-.73c2.02-.19 2.18-.34 2.18-2.12v-7.32c0-1.9-.07-1.93-2.15-2.18v-.57c1.48-.31 3.02-.69 4.6-1.26v3.27h.06c.72-1.23 2.27-3.2 3.78-3.2.94 0 1.7.86 1.7 1.49 0 .54-.35 1.27-1.01 1.56-.35.16-.63.1-.79-.03-.44-.38-.79-.67-1.36-.67-.76 0-1.58.61-2.4 2.25v6.69m14.94-6.4c.44 0 .57-.16.57-1.01 0-1.26-1.01-2.79-2.65-2.79-1.51 0-3.15 1.56-3.4 3.9l5.48-.09zm3.15 6.53c-1.73 2.48-3.91 3.11-4.76 3.11-4 0-6.4-3.01-6.4-6.69 0-4.25 2.96-7.83 6.75-7.83 2.46 0 4.5 2.29 4.5 4.41 0 .98-.1 1.05-.66 1.17-.45.1-4.35.42-8.26.54-.1 4.73 2.87 6.38 5.14 6.38 1.04 0 1.99-.38 3.25-1.52l.44.45zm11-6.53c.44 0 .57-.16.57-1.01 0-1.26-1.01-2.79-2.65-2.79-1.51 0-3.15 1.56-3.4 3.9l5.48-.09zm3.15 6.53c-1.73 2.48-3.91 3.11-4.76 3.11-4 0-6.4-3.01-6.4-6.69 0-4.25 2.96-7.83 6.75-7.83 2.45 0 4.5 2.29 4.5 4.41 0 .98-.1 1.05-.66 1.17-.44.1-4.35.42-8.26.54-.1 4.73 2.87 6.38 5.14 6.38 1.04 0 1.99-.38 3.25-1.52l.44.45zm3.63-1.71c.5 1.84 1.92 3.87 3.78 3.87 1.13 0 2.24-.79 2.24-2.34 0-1.3-.73-2.22-2.46-2.98-2.05-.92-3.78-1.99-3.78-4.09 0-2.28 1.95-4.15 4.69-4.15 1.13 0 2.02.26 2.65.54.31.73.63 2.51.69 3.05l-.76.19c-.95-2.09-1.96-2.82-3.16-2.82-1.42 0-2.08 1.11-2.08 2.15 0 1.3 1.36 2.19 2.74 2.76 2.3.95 3.81 2.19 3.81 4.31 0 2.92-2.68 4.35-5.08 4.35-1.61 0-3.05-.662-3.65-1.17-.19-.472-.38-2.22-.38-3.452l.72-.19M55.57 33.23s-1.475 5.03-.07 5.64c1.295.56 3.306-4.91 3.306-4.91l-3.238-.72zm-12.565 4.64s2.84 3.79 3.73 2.83c.81-.87-.698-2.24-.974-3.49-.28-1.25-2.76.67-2.76.67zm21.574 3.01s-1.5 2.1-3.91 4.21c-2.26 1.98-2.52 3.23-3.42 8.05-1.19 6.37 2.69 24.62 3.77 27.63H45.91s4.52-21.38 2.392-31.12c-1.514-6.95-7.406-9.64-7.406-9.64l8.922-8.09s-1.054 4.556-.844 6.28c.278 2.28.832 3.056 2.087 2.974.85-.12 1.16-1.13 1.23-2.18.14-2.33-1-5.93-.87-7.69l2.79 1.85 5.51 4.06s-1.55 2.25-2.63 3.31c-.94.912-1.17 2.53-.67 3.16.51.63 1.96-.14 2.96-1.65 1-1.51 1.52-2.78 1.52-2.78l3.72 1.643z" fill="#FFF"/><path d="M30.612 42.405c1.45.55 1.833-.463 2.226-1.155.975-1.72 2.888-.16 2.983-.942.35-2.817 3.72-.385 3.11-2.968-.28-1.182-1.95-.81-1.88-1.672.1-1.392 2.5-1.022 1.75-2.86-.55-1.374-1.36-1.468-.58-3.525.78-2.056 3.73-1.078 5.4-.36 1.13.488 2.12 1.105 2.44.19.58-1.658 1.99.367 2.89-1.493.27-.542-1.05-1.153-.9-2.4.12-1.08-1.11-1.1-2.78-1.796-.69-.288-1.31-1.822-.33-3.17.95-1.302.81-1.41 3.65-1.687 1.72-.167 2.12 2.736 3.3 2.645 2.19-.175 1.89 1.8 3.6 1.907 1.46.09 1.1-1.7 1.78-2.34 1.01-.95 3.62.46 3.35-.89-.12-.61-2.77-1.44-.93-2 .46-.14-1.91-1.36-.54-2.34 1.68-1.21 2.44.35 3.1-.23.6-.54.75-1.44.69-2.15-.13-1.51-2.15-3.89-3.27-3.59-4.58 1.24-2.44-2.85-5.53-3.26-.71-.1-1.34.98-2.64 1.19-1.13.17-1.65-.89-2.01-1.24-.35-.34-1.03-.18-1.44-.18-.7 0-.36-.34-.76-.72-1.13-1.05-1.51 1.1-2.6 1.07-.87-.03-.98-.43-1.7-1.16-.99-1.25-.92-.37-1.15-.59.55-1.18 1.54-.37 2.71.41 1.94-3.16 4.02.01 5.74-.53 1.21-.38 1.16-1.77 2.57-1.82.94-.04 1.6 1.83 3.03 1.64 1.25-.16 1.72-.94 2.92-.12-.41-.28 1.18-1.72 1.34-1.89 1.06-1.16 2.8-.79 4.41.81 1.93-1.75 1.89.95 1.6 2.19.9-.32 3.88.13 3.98 1.42.1 1.28.44 3.83 1.13 3.09.87-.92 1.19-2.48 2.59-1.05.09.09 2.17 1.96 2.16 1.69.03.74-.04 2.93.92 3.71.87.7 2.51-.21 4.25-.88 1-.22 3.76 2.2 3.04 3.32-.27.42-.4 1.64-.18 2.23.28.73 1.26.27 1.66.59.918.72 1.23 1.61.99 2.78-.18.89 3.38.56 1.51 3.15-1.61 2.22-.41 2.67.32 2.64.38-.02 1.35.86.65 1.75-1.05 1.33-1.77-.78-2.5 1.07-.98 2.48-.97.16-2.91.89-2.64.98 1.54 1.82 1.21 2.65-.283.7.047 1.36.94 1.38.57.01 1.61-.66 3.1.35-.763 1.81-.34 3.11-.326 3.5.01.41-.18 1-.47 1.13-.782.35-.07.96-1.264.84-1.16-.11-1.41.43-2.09 1.23-1.07 1.27-2.33.9-3.246.36-1.75-1.02-3.83-.51-4.47-1.01-1.19-.93-.58 2.09-2.93 1.53-1.91-.46-.93-2.2-1.716-2.99-.497-.5-2.76.73-3.49 1.9-.54.87-2.13 2.25-3.196 1.21-.66-.65-.74-1.84-1.622-.4-.87 1.42-2.42-.07-2.37-1.23.046-.98-1.81-1.2-2.56-1.3.75-1.18-.31-.49-.65-1.64-.17-.56 1.08-2.75.58-3.23-.6-.6-1.15-.13-1.82-.7-.585-.5-1.065-1.21-1.975-1-.65.15-1.14 2.09-2.02 1.54-.89-.56-.68-.95-1.59-.52-1.06.5-.96-.61-1.59-1 .06.03-1.73 2.98-2.79 2.92-.77-.05-2.35-2.89-3.11 1.82-.22 1.33-.91-.83-1.66.06-1.35 1.59 1.36 2.11-1.79 2.46-.02 0-4.43 2.19-5.56.67-.03-.7-.12 1.18-2.87 1.8.07-.16-1.43-.46-1.36-.62" fill="#777776"/><path d="M51.115 35.603c-.713-.01-.597-1.55-1.482-1.076-.735.39-.552 1.806-1.417 2.305-1.798 1.036-2.127-.684-3.31-.132-1.182.55-.622 3.388-.833 3.22-1.074-.86-1.974-.243-2.025.307-.068.718.095 2.217-2.065 1.884-1.33-.2-2.747 2.62-4.688-.07-1.046.48-2.547 2.36-3.76 1.67-1.342-.76-1.286-.96-1.837-2.41-.352-.92-1.457-1.84-2.398-1.42-1.227.56-2.64-.93-4.193.53-1.46 1.38-3.37-2.31-2.2-3.99.648-.93.762-1.73.554-2.22-.37-.86-1.6-1.17-2.12-.67-.62.56-1.62.22-2.17-.89-.76-1.53 1.09-2.04 1.16-3.19.1-1.7-.36-2.23.75-3.1.7-.55-.42-3.06 1.01-4.17 1.09-.84 2.86-1.11 3.69-.13 1.1-.33 2.05-1.1 2.97-.48.46.31 2.13-1.07 1.24-1.75-.58-.44-1.36-1.35-1.24-2.22.37-2.52 2.11-.87 2.75-2.14 1.37-2.75 3.96-2.75 5.59-2.21.41.14.7-2.01.75-2.01-2.23-1.59.4-2.05.38-2.76-.05-1.35 1.4-2.96 2.77-2.56 1.29.37 1.94-1.21 3-1.79 1.3-.71 1.88 2.07 3.35.17 1.48-1.9 3.22.96 4.93.42 1.21-.38 1.16-1.81 2.57-1.86.93-.03 1.82 2.48 3.03 1.69 1.37-.89 1.51.76 3.05-.63.05-.9.52-1.35.67-1.51 1.06-1.16 2.54-1.87 4.31.83 2.18-1.14 3.01.91 2.23 2.31.9-.32 3.88.13 3.98 1.41.1 1.28-.37 2.48.55 2.91 1.07.5 1.78-2.3 3.17-.86.09.09 1.6-.31 1.9 1.74-.6 1.74.22 2.88 1.19 3.66.86.7 2.33-1.09 4.25-.88 1.37.11 4.16 1.75 3.04 3.31-.29.4-.4 1.64-.18 2.23.28.73 1.21.19 2.04.81.93.7 1.21 1.59.61 2.56-.48.78 3.38 1.09 1.51 3.16-1.62 1.8-.41 2.64.32 2.61.38-.02.76.4.65 1.79-.13 1.7-1.77-.82-2.5 1.03-.97 2.48-3.27-.1-3.54 1.46s2.26 1.13 2.14 2.62c-.06.76.35.71 1.25.73.57.02 3.17.15 2.17 1.9-.68 1.21 1.31 3.14-1.73 4.08-1.11.35-1.4.43-2.08 1.24-1.07 1.28-1.49 1.28-2.4.75-1.76-1.02-5.49-2.06-5.72-1.693-.93.97.08 1.245-1.69 1.426-2.6.26-1.11-.68-1.78-1.84-.77-1.36-2.9-1.05-3.66.13-.66 1.028-1.2 2.424-2.62 2.5-1.61.087-.89-1.12-1.94-1.376-1.5-.37-.9 2.18-2.96-.27-.98-1.17-1.93-.68-3.19-2.24-1.26-1.57 1.9-3.87-.54-4.45-.76-.18-2.7-2.35-3.39-1.12-.56 1.02-1.25 1.73-2.19.69-.55-.62-.94.14-1.61.13" stroke="#FFF" stroke-width="1.5"/><path d="M105.617 74.333l-.32.043c-.464.062-.526.155-.382.61l1.394 4.425h.02l1.65-5.21h.25l1.86 5.2h.02c.42-1.3 1.02-3.49 1.2-4.24.14-.6.09-.72-.37-.78l-.3-.04v-.24h2.19v.24c-.68.09-.76.13-1.1 1.07-.1.26-.85 2.65-1.72 5.51h-.28l-1.86-5.08-.02.02-1.69 5.06h-.29l-1.78-5.58c-.28-.86-.44-.93-1.03-.99v-.24h2.53v.24" fill="#FFF"/><g transform="translate(116.52 73.558)"><mask id="b" fill="#fff"><use xlink:href="#a"/></mask><path d="M2.62 4.327h1.826l-.908-2.554h-.02l-.9 2.554zm1.97 2.72l.33-.042c.383-.04.424-.156.32-.477-.07-.25-.37-1.06-.66-1.807H2.485c-.104.27-.372 1.08-.517 1.52-.196.6-.102.74.362.78l.31.03v.24H.43v-.24c.67-.07.755-.13 1.115-1.06L3.672.48l.238-.1.732 1.973c.486 1.32.94 2.638 1.342 3.698.33.88.464.95 1.104 1v.24H4.59v-.24zm8.32-1.587c.165.486.692 1.64 1.786 1.64.784 0 1.28-.53 1.28-1.34 0-.883-.672-1.247-1.332-1.568-.34-.166-1.734-.654-1.734-1.9 0-1.028.774-1.91 2.126-1.91.29 0 .64.06.857.134.134.042.28.093.392.115.042.37.103.78.186 1.41l-.25.03c-.17-.61-.46-1.34-1.4-1.34-.73 0-1.11.54-1.11 1.16 0 .77.55 1.11 1.33 1.47.68.3 1.77.73 1.77 2.02 0 1.21-.98 2.09-2.29 2.09-.37 0-.72-.07-.98-.15s-.44-.16-.57-.21c-.08-.27-.19-1.01-.29-1.57l.26-.04" fill="#FFF" mask="url(#b)"/></g><path d="M144.573 77.075V75.6c0-1.13-.083-1.203-.908-1.267v-.238h2.725v.238c-.867.064-.95.136-.95 1.267v3.74c0 1.13.083 1.202.93 1.265v.24h-2.788v-.24c.908-.063.99-.135.99-1.266v-1.85h-3.58v1.85c0 1.13.082 1.2.93 1.26v.24h-2.727v-.24c.847-.07.93-.14.93-1.27V75.6c0-1.13-.083-1.203-.97-1.267v-.238h2.724v.238c-.81.064-.89.136-.89 1.267v1.475h3.58m9.49 2.265c0 1.13.08 1.202.92 1.265v.24h-2.73v-.24c.84-.063.93-.135.93-1.266V75.6c0-1.13-.09-1.203-.93-1.267v-.238h2.72v.238c-.85.064-.93.136-.93 1.267v3.74" fill="#FFF"/><g transform="translate(160.448 73.558)"><mask id="d" fill="#fff"><use xlink:href="#c"/></mask><path d="M6.545 7.36h-.27l-4.48-5.473h-.02v2.648c0 1.09.043 1.65.084 1.972.05.364.32.51 1.01.54v.24H.39v-.24c.567-.02.836-.176.888-.54.043-.322.084-.882.084-1.972V2.28c0-.746-.01-.913-.196-1.15C.97.88.692.806.258.774V.537h1.507L6.11 5.77h.022V3.288c0-1.09-.04-1.65-.083-1.972-.06-.363-.33-.51-1.02-.54v-.24h2.48v.24c-.57.02-.84.177-.89.54-.04.322-.08.882-.08 1.972v4.07m12.47-5.066C18.72.972 17.87.724 16.95.724c-1.6 0-2.623 1.1-2.623 3.063 0 1.578.744 3.313 2.787 3.313.372 0 .723-.043.97-.136.228-.093.3-.166.3-.664v-.925c0-.706-.042-.778-1.167-.862v-.238h2.654v.238c-.57.094-.62.126-.62.862v.707c0 .374.01.705.07.945-.64.176-1.47.415-2.25.415-2.17 0-3.75-1.423-3.75-3.458C13.31 1.638 15.18.38 17.13.38c.9 0 1.61.18 1.972.27.03.36.08.9.163 1.61l-.247.037M28.83 5.78c0 1.132.082 1.204 1.093 1.267v.24H26.91v-.24c.97-.063 1.052-.135 1.052-1.266V.88h-.485c-.92 0-1.197.135-1.352.332-.114.145-.237.436-.36.893h-.26c.042-.634.104-1.298.125-1.827h.144c.155.238.258.26.537.26h4.24c.27 0 .32-.063.49-.26h.15c.01.435.06 1.193.12 1.795l-.26.032c-.1-.498-.21-.79-.37-.955-.18-.197-.5-.27-1.14-.27h-.69v4.9M40.05.724c-1.217 0-2.25 1.007-2.25 2.96 0 2.002 1.044 3.416 2.55 3.416 1.24 0 2.25-.967 2.25-2.898 0-2.242-1.07-3.478-2.55-3.478zm3.552 3.095c0 2.15-1.496 3.62-3.467 3.62-1.952 0-3.335-1.5-3.335-3.46 0-1.74 1.218-3.6 3.52-3.6 1.786 0 3.282 1.39 3.282 3.44z" fill="#FFF" mask="url(#d)"/></g><path d="M216.127 80.917h-.268l-4.49-5.472h-.02v2.648c0 1.09.04 1.65.08 1.973.05.363.33.508 1.01.54v.238h-2.48v-.24c.57-.02.83-.175.89-.538.04-.323.08-.883.08-1.973V75.84c0-.748-.01-.914-.2-1.153-.2-.25-.48-.322-.91-.354v-.238h1.5l4.34 5.233h.02v-2.48c0-1.092-.04-1.652-.08-1.974-.06-.363-.34-.51-1.02-.54v-.24h2.48v.24c-.57.02-.84.177-.89.54-.04.322-.08.882-.08 1.973v4.07" fill="#FFF"/><g transform="translate(227.956 73.558)"><mask id="f" fill="#fff"><use xlink:href="#e"/></mask><path d="M2.115 5.957c0 .477.032.685.176.81.14.114.39.176.74.176 2.17 0 3.01-1.505 3.01-3.063 0-1.048-.22-2.16-1.26-2.7-.41-.216-1-.34-1.82-.34-.51 0-.66.03-.74.06-.06.02-.09.084-.09.29v4.767zM3.25.537c1.23 0 2.22.25 2.88.872.516.48.898 1.24.898 2.2 0 2.56-1.95 3.67-4.376 3.67H.278v-.24c.887-.06.97-.14.97-1.27V2.04C1.248.913 1.165.84.36.775V.537h2.89zM18.475 2.24c-.31-1.194-.97-1.516-1.982-1.516-1.858 0-2.684 1.412-2.684 3.042 0 2.004 1.02 3.334 2.69 3.334 1.15 0 1.69-.562 2.2-1.65l.25.03c-.14.446-.36 1.276-.53 1.67-.29.074-1.22.292-1.94.292-2.62 0-3.71-1.786-3.71-3.437C12.78 1.867 14.42.38 16.68.38c.876 0 1.57.21 1.856.27.082.58.124 1.03.186 1.57l-.26.02" fill="#FFF" mask="url(#f)"/></g><path d="M249.025 48.088c0 .135.02.135.23.135.305 0 .382-.23.382-.385 0-.308-.153-.482-.363-.482-.23 0-.25.04-.25.155v.58zm-.537-.366c0-.25-.057-.366-.21-.385h-.077c-.03-.077-.03-.192.02-.21.41-.02.75-.04 1.08-.04.42 0 .96.096.96.654 0 .27-.19.47-.34.54-.03.02-.03.06 0 .14.2.41.35.68.48.77.08.06.12.1.17.12.04 0 .04.12 0 .14-.09.02-.17.02-.27.02-.3 0-.53-.11-.71-.4-.09-.15-.17-.3-.26-.48-.04-.08-.09-.11-.17-.11-.09 0-.11.06-.11.1v.27c0 .29 0 .37.27.4l.06.02c.04.02.04.18 0 .19-.19 0-.34-.02-.57-.02-.21 0-.38.02-.55.02-.05-.02-.05-.17-.02-.19l.08-.02c.21-.06.21-.1.21-.4v-1.1zm-1.09.558c0 1.118.86 2.023 1.895 2.023 1.033 0 1.894-.905 1.894-2.023 0-1.135-.86-2.02-1.894-2.02-1.035 0-1.896.885-1.896 2.02zm4.383 0c0 1.35-1.11 2.446-2.48 2.446-1.38 0-2.49-1.097-2.49-2.446 0-1.347 1.11-2.445 2.49-2.445 1.38 0 2.49 1.098 2.49 2.445z" fill="#FFF"/></g></svg>