<svg viewBox="0 0 257 82" xmlns="http://www.w3.org/2000/svg" xmlns:xlink="http://www.w3.org/1999/xlink"><title>caseytrees-logo</title><defs><path id="a" d="M.086 7.484H16.66v-7.1H.086v7.1z"/><path id="c" d="M.38 7.484h43.91V.28H.38v7.204z"/><path id="e" d="M.4 7.484h18.926v-7.1H.4z"/></defs><g fill="none" fill-rule="evenodd"><path d="M87.937 51.634h-3.763v2.09c-2.728.734-4.66 3.167-4.66 6.06 0-.01-.044 1.9-.066 2.98h-8.406l-.007 5.058-9.8-.01.322 1.484 10.986.006s-.006-3.976-.006-5.056h8.36l.097-4.448c0-2.397 1.697-4.4 4.04-4.782l.623-.1V53.12h1.536v1.798l.61.106c2.317.404 3.994 2.406 3.994 4.756l.062 4.466h8.34v5.046h153.2V67.81H101.68v-5.047h-8.365c-.01-.946-.037-2.993-.037-2.993 0-2.85-1.91-5.286-4.604-6.043v-2.093h-.737" fill="#739A71"/><path d="M87.937 51.634h-3.763v2.09c-2.728.734-4.66 3.167-4.66 6.06 0-.01-.044 1.9-.066 2.98h-8.406l-.007 5.058-9.8-.01.322 1.484 10.986.006s-.006-3.976-.006-5.056h8.36l.097-4.448c0-2.397 1.697-4.4 4.04-4.782l.623-.1V53.12h1.536v1.798l.61.106c2.317.404 3.994 2.406 3.994 4.756l.062 4.466h8.34v5.046h153.2V67.81H101.68v-5.047h-8.365c-.01-.946-.037-2.993-.037-2.993 0-2.85-1.91-5.286-4.604-6.043v-2.093h-.737z" stroke="#739A71" stroke-width=".505" stroke-linecap="round" stroke-linejoin="round"/><path d="M37.724 51.505s.667 14.988.72 16.304H48.76l-.35 1.49-11.392-.01-.76-17.33-1.475-2.42-1.438 2.42-.765 17.34h-9.25v-6.45h-2.938s-.01-2.11-.012-2.94H9.842v2.93H6.84v6.44H1.12l.008-1.49h4.23v-6.43h3.004v-2.93h13.494s.006 2.1.006 2.93h2.95v6.45h6.353c.05-1.32.717-16.33.717-16.33l2.923-4.76 2.92 4.75" fill="#739A71"/><path d="M37.724 51.505s.667 14.988.72 16.304H48.76l-.35 1.49-11.392-.01-.76-17.33-1.475-2.42-1.438 2.42-.765 17.34h-9.25v-6.45h-2.938s-.01-2.11-.012-2.94H9.842v2.93H6.84v6.44H1.12l.008-1.49h4.23v-6.43h3.004v-2.93h13.494s.006 2.1.006 2.93h2.95v6.45h6.353c.05-1.32.717-16.33.717-16.33l2.923-4.76 2.92 4.75z" stroke="#739A71" stroke-width=".505" stroke-linecap="round" stroke-linejoin="round"/><path d="M121.057 47.622c-.958-3.68-3-4.672-6.13-4.672-5.748 0-8.303 4.352-8.303 9.378 0 6.175 3.162 10.273 8.334 10.273 3.576 0 5.237-1.72 6.802-5.08l.798.1c-.415 1.38-1.118 3.94-1.63 5.16-.892.23-3.766.9-6.002.9-8.078 0-11.463-5.5-11.463-10.59 0-6.59 5.077-11.17 12.07-11.17 2.714 0 4.853.64 5.748.83.26 1.76.39 3.17.58 4.84l-.8.07m10.92 7.81c-.7.29-2.62 1.15-3.22 1.47-1.12.61-1.66 1.25-1.66 2.4 0 1.7 1.15 2.5 2.11 2.5.74 0 1.92-.57 2.78-1.24v-5.12zm1.76 8.13c-1.08-.19-1.56-1.28-1.75-2.08-1.34.87-3.06 2.08-3.73 2.08-2.33 0-3.83-1.92-3.83-3.68 0-1.47.77-2.56 2.43-3.23 1.57-.64 4.18-1.56 5.14-2.24v-1.09c0-1.98-.92-3.04-2.62-3.04-1.56 0-2.23 1.35-2.58 2.69-.09.39-.38.61-.73.61-.51 0-1.37-.51-1.37-1.09 0-.41.38-.86 1.09-1.37.77-.57 2.65-1.79 4.92-2.2.89 0 1.88.29 2.52.77 1.06.83 1.22 1.95 1.22 3.11V60c0 1.19.42 1.73.9 1.73.26 0 .8-.125 1.37-.413l.29.706-3.23 1.568zm6.2-4.86c.51 1.86 1.95 3.91 3.83 3.91 1.15 0 2.27-.8 2.27-2.36 0-1.31-.73-2.24-2.49-3.01-2.07-.92-3.83-2.01-3.83-4.12 0-2.31 1.98-4.2 4.76-4.2 1.15 0 2.05.26 2.69.55.32.74.64 2.53.71 3.07l-.76.2c-.95-2.11-1.98-2.85-3.19-2.85-1.44 0-2.11 1.12-2.11 2.18 0 1.31 1.38 2.21 2.78 2.78 2.33.96 3.87 2.21 3.87 4.36 0 2.95-2.71 4.39-5.14 4.39-1.62 0-3.09-.67-3.7-1.18-.19-.48-.38-2.24-.38-3.49l.74-.19m19.61-4.87c.45 0 .58-.16.58-1.02 0-1.28-1.02-2.82-2.68-2.82-1.53 0-3.19 1.57-3.45 3.94l5.56-.1zm3.2 6.59c-1.75 2.5-3.96 3.14-4.82 3.14-4.05 0-6.48-3.04-6.48-6.75 0-4.29 3-7.9 6.83-7.9 2.49 0 4.57 2.31 4.57 4.45 0 .99-.09 1.06-.67 1.19-.45.1-4.41.42-8.36.55-.09 4.77 2.91 6.43 5.21 6.43 1.05 0 2.01-.39 3.29-1.54l.45.45zm8.39-10.4l-.96.13c-.7.1-.67.61-.35 1.51l2.78 7.88c.8-1.79 2.75-6.85 3.13-7.97.35-.99.29-1.28-.45-1.37l-1.18-.16v-.74h5.62v.74c-1.73.32-1.76.45-2.75 2.34-.86 1.6-2.01 4.23-4.06 9.06-2.11 4.99-2.94 7.01-3.42 8.7-.16.64-.63.8-.99.8-.79 0-1.56-.7-1.59-1.47.03-.45.39-.73.9-1.12.9-.64 1.63-1.6 2.21-2.78.45-.96.86-1.95.99-2.34.09-.29.09-.67-.03-1.05-1.09-3.39-2.59-7.29-3.51-9.76-.73-1.98-.83-2.14-2.81-2.37v-.74h6.48v.74m21.58 8.51c0 3.49.26 3.71 3.39 3.9v.74h-9.33v-.74c3.01-.19 3.26-.41 3.26-3.9v-15.2h-1.5c-2.84 0-3.7.42-4.18 1.03-.35.45-.73 1.35-1.12 2.76h-.8c.13-1.95.32-4 .39-5.63h.45c.48.74.8.8 1.66.8h13c.83 0 .99-.19 1.5-.8h.45c.03 1.35.19 3.68.35 5.54l-.8.1c-.31-1.53-.67-2.43-1.15-2.94-.54-.61-1.53-.83-3.51-.83h-2.14v15.1m12.33 1.76c0 1.79.16 1.95 2.65 2.14v.74h-7.34v-.74c2.05-.19 2.21-.35 2.21-2.14v-7.4c0-1.92-.06-1.95-2.17-2.21v-.57c1.5-.32 3.07-.7 4.67-1.28v3.3h.07c.74-1.24 2.3-3.23 3.84-3.23.96 0 1.73.87 1.73 1.51 0 .55-.35 1.28-1.02 1.57-.35.16-.64.1-.8-.03-.44-.38-.8-.67-1.37-.67-.76 0-1.59.61-2.42 2.28v6.76m15.14-6.46c.45 0 .58-.16.58-1.02 0-1.28-1.02-2.82-2.68-2.82-1.53 0-3.19 1.57-3.45 3.94l5.56-.09zm3.2 6.59c-1.75 2.5-3.96 3.14-4.82 3.14-4.05 0-6.48-3.04-6.48-6.75 0-4.29 3.01-7.9 6.84-7.9 2.49 0 4.57 2.31 4.57 4.45 0 .99-.09 1.06-.67 1.19-.45.1-4.4.42-8.36.55-.1 4.77 2.9 6.44 5.2 6.44 1.06 0 2.02-.39 3.29-1.54l.45.45zm11.14-6.59c.45 0 .58-.16.58-1.02 0-1.28-1.02-2.81-2.68-2.81-1.53 0-3.19 1.57-3.45 3.94l5.56-.09zm3.19 6.59c-1.76 2.5-3.96 3.14-4.82 3.14-4.05 0-6.48-3.04-6.48-6.75 0-4.29 3-7.9 6.84-7.9 2.49 0 4.57 2.31 4.57 4.45 0 .99-.09 1.06-.67 1.19-.45.1-4.4.42-8.36.55-.1 4.77 2.91 6.43 5.2 6.43 1.05 0 2.01-.38 3.29-1.54l.45.45zm3.67-1.72c.52 1.86 1.95 3.91 3.84 3.91 1.15 0 2.27-.8 2.27-2.36 0-1.31-.73-2.24-2.49-3-2.08-.93-3.83-2.02-3.83-4.13 0-2.31 1.98-4.2 4.76-4.2 1.15 0 2.04.26 2.68.55.32.74.64 2.53.7 3.07l-.76.2c-.96-2.11-1.98-2.85-3.19-2.85-1.43 0-2.1 1.12-2.1 2.18 0 1.31 1.38 2.21 2.78 2.78 2.33.96 3.87 2.21 3.87 4.35 0 2.95-2.71 4.39-5.14 4.39-1.63 0-3.1-.67-3.7-1.18-.19-.48-.38-2.24-.38-3.49l.74-.19" fill="#1A1918"/><path d="M57.433 33.024s-1.496 5.08-.07 5.687c1.31.56 3.348-4.95 3.348-4.95l-3.27-.73zm-12.73 4.684s2.876 3.82 3.778 2.856c.82-.877-.7-2.26-.98-3.53s-2.79.674-2.79.674zm21.856 3.038s-1.52 2.116-3.96 4.246c-2.28 1.99-2.55 3.254-3.46 8.12C57.93 59.54 61.87 77.966 62.96 81H47.63s4.58-21.587 2.425-31.42c-1.534-7.016-7.503-9.734-7.503-9.734l9.038-8.172s-1.068 4.596-.856 6.337c.282 2.31.843 3.09 2.115 3.01.85-.12 1.17-1.13 1.24-2.2.14-2.34-1.01-5.98-.88-7.76l2.82 1.88 5.57 4.1s-1.57 2.28-2.67 3.35c-.95.93-1.19 2.55-.68 3.19.51.64 1.98-.14 3-1.66 1.01-1.52 1.53-2.8 1.53-2.8l3.76 1.66z" fill="#075828"/><path d="M32.13 42.268c1.47.556 1.858-.467 2.256-1.166.987-1.736 2.926-.16 3.02-.95.35-2.844 3.762-.39 3.144-2.997-.284-1.193-1.972-.817-1.91-1.688.1-1.405 2.527-1.032 1.773-2.887-.564-1.387-1.38-1.483-.593-3.558.79-2.076 3.78-1.09 5.47-.364 1.144.493 2.144 1.116 2.464.19.588-1.672 2.013.373 2.923-1.506.267-.546-1.062-1.163-.917-2.423.125-1.09-1.122-1.12-2.817-1.82-.704-.29-1.33-1.84-.338-3.2.962-1.32.815-1.43 3.697-1.71 1.737-.17 2.15 2.76 3.348 2.67 2.212-.18 1.912 1.81 3.65 1.92 1.472.09 1.11-1.72 1.797-2.36 1.022-.96 3.664.47 3.39-.9-.123-.62-2.808-1.45-.944-2.02.46-.14-1.935-1.37-.554-2.36 1.7-1.22 2.47.36 3.13-.23.61-.55.76-1.46.7-2.17-.13-1.52-2.18-3.93-3.31-3.62-4.64 1.25-2.47-2.88-5.61-3.29-.71-.1-1.36 1-2.67 1.2-1.15.17-1.68-.9-2.04-1.25-.36-.35-1.05-.18-1.47-.18-.71 0-.36-.34-.77-.73-1.14-1.06-1.53 1.11-2.63 1.08-.88-.02-.99-.43-1.72-1.17-1.01-1.27-.93-.37-1.17-.6.55-1.19 1.56-.37 2.74.41 1.97-3.18 4.08.03 5.82-.52 1.22-.39 1.17-1.79 2.59-1.84.94-.03 1.62 1.85 3.07 1.66 1.26-.17 1.74-.95 2.95-.13-.42-.29 1.19-1.74 1.35-1.91 1.07-1.17 2.83-.79 4.46.82 1.96-1.76 1.91.97 1.62 2.22.91-.33 3.94.13 4.04 1.43.1 1.29.44 3.86 1.15 3.12.87-.93 1.2-2.51 2.62-1.06.08.08 2.19 1.97 2.19 1.7.03.74-.05 2.96.93 3.75.87.71 2.54-.21 4.3-.89 1.01-.23 3.8 2.21 3.07 3.34-.28.42-.41 1.66-.18 2.25.28.74 1.27.27 1.68.6.92.72 1.24 1.63 1 2.8-.18.91 3.42.57 1.53 3.19-1.63 2.24-.42 2.7.33 2.67.38-.02 1.36.87.65 1.76-1.07 1.34-1.8-.79-2.54 1.08-.99 2.5-.98.16-2.95.9-2.67 1 1.56 1.84 1.23 2.68-.29.71.04 1.38.95 1.39.58.01 1.63-.66 3.14.35-.77 1.82-.34 3.14-.33 3.53.01.42-.18 1.02-.47 1.15-.8.36-.07.96-1.28.84-1.18-.12-1.43.43-2.11 1.25-1.09 1.29-2.37.9-3.29.36-1.77-1.03-3.88-.51-4.53-1.01-1.2-.94-.59 2.12-2.97 1.55-1.93-.47-.94-2.22-1.73-3.02-.51-.51-2.8.73-3.54 1.92-.55.88-2.16 2.27-3.24 1.22-.67-.66-.76-1.86-1.65-.41-.88 1.44-2.45-.06-2.4-1.24.04-.99-1.84-1.2-2.6-1.31.76-1.19-.31-.5-.66-1.65-.17-.57 1.09-2.77.59-3.27-.61-.6-1.16-.13-1.85-.71-.6-.5-1.08-1.22-2-1.01-.66.15-1.15 2.11-2.05 1.55-.9-.56-.69-.95-1.62-.52-1.06.5-.96-.61-1.6-1.01.05.03-1.75 3.01-2.83 2.95-.78-.05-2.38-2.92-3.15 1.84-.22 1.34-.93-.83-1.69.05-1.37 1.61 1.38 2.13-1.81 2.48-.02 0-4.49 2.22-5.63.68-.03-.7-.12 1.2-2.9 1.82.07-.16-1.45-.46-1.38-.62" fill="#739971"/><path d="M52.913 34.698c.07 0 .13.034.148.053-.02-.03-.06-.1-.14-.25l-.02-.04c-.18-.36-.29-.53-.52-.7-.37-.28-.84-.29-1.3-.05-.51.27-.71.64-.97 1.43l-.05.17c-.15.46-.26.65-.42.74-.59.35-.82.33-1.36.04l-.11-.06-.12-.06c-.58-.29-1.09-.35-1.7-.07-.75.35-1.07 1.11-1.17 2.15-.03.37-.04.7-.03 1.21.01.27.01.33.01.38 0-.02.01-.05.04-.13.07-.16.19-.3.41-.38.26-.09.49-.02.65.11-1.35-1.07-3.07-.53-3.19.8 0 .07-.01.13-.01.24-.02.28-.02.37-.04.5-.09.52-.29.68-1.22.53-.63-.09-.97.05-1.95.64-1.14.68-1.53.68-2.33-.43l-.33-.46-.52.24c-.38.17-.46.23-1.4.95-.41.32-.68.5-.94.64-.39.21-.65.24-.84.13-.4-.23-.64-.38-.8-.52-.16-.14-.25-.28-.36-.54-.07-.16-.41-1.07-.38-1-.53-1.39-2.07-2.41-3.38-1.82-.24.11-.48.1-1.19-.05-1.44-.29-2.26-.2-3.24.71-.25.24-.62.06-1.02-.67-.46-.86-.53-1.9-.16-2.43.74-1.06.98-2.13.63-2.93-.54-1.27-2.35-1.8-3.28-.91-.23.21-.72.02-1.09-.7-.22-.44-.15-.62.39-1.24l.05-.05c.54-.62.77-.99.81-1.58.03-.41.02-.72 0-1.21-.03-.71-.01-.85.11-1.03.07-.11.19-.24.38-.38.53-.41.56-.78.52-2.06-.02-.38-.02-.58-.01-.79.03-.68.18-1.1.52-1.36.93-.72 2.27-.82 2.77-.23l.3.34.44-.13c.26-.07.49-.16.86-.32 1-.42 1.26-.46 1.56-.26.61.41 1.45.03 2.04-.61.68-.73.85-1.68.03-2.3-.6-.47-1.05-1.15-.99-1.58.13-.84.24-.93.83-.97h.11c.93-.06 1.41-.24 1.78-.98 1.01-2.02 2.88-2.52 4.81-1.88.59.2.92-.14 1.16-.65.1-.23.19-.51.28-.86.05-.22.09-.38.16-.73.02-.12.04-.17.04-.21 0 .02 0 .02-.03.08-.02.13-.02.13-.63.38l2.27.05-1.85-1.32c-.29-.21-.47-.38-.57-.52-.04-.06-.04-.07-.04-.06.01-.02.11-.13.37-.34.01-.01.18-.14.24-.18.1-.08.18-.14.25-.21.28-.26.45-.55.44-.92-.03-1.01 1.09-2.12 1.91-1.89 1.01.29 1.66-.07 2.61-1.02l.13-.14c.4-.41.6-.59.82-.71.14-.07.22-.04.65.3l.06.05c1.06.84 1.94.89 2.91-.37.44-.56.73-.53 1.95.1.97.51 1.46.69 2.12.66.2-.01.39-.04.58-.1.62-.19.97-.51 1.45-1.14l.06-.08c.37-.5.53-.61.91-.63-.02 0-.02 0 0 .02.14.08.27.21.69.68 1.03 1.14 1.73 1.54 2.74.89.32-.21.4-.21.77-.09l.03.01c.85.28 1.48.18 2.38-.63l.21-.2.02-.29c.02-.32.11-.57.25-.79.04-.06.08-.11.13-.16l.13-.14c1.11-1.2 1.98-1.18 3.25.76l.35.53.56-.29c.73-.38 1.15-.32 1.36-.01.23.32.23.91-.03 1.38l-.95 1.6 1.76-.62c.31-.11 1.17-.07 1.91.12.75.2 1.18.5 1.2.7.02.28.02.52-.01 1-.08 1.5.04 2.09.97 2.52.66.31 1.2.09 1.79-.46.08-.07.11-.09.3-.28.57-.56.62-.58.92-.27.11.12.22.17.34.2l.14.03h.15c.26 0 .4.02.54.09.27.13.46.42.55 1.04l.04-.33c-.64 1.85-.03 3.3 1.42 4.47.43.35.93.39 1.5.23.19-.05.38-.13.62-.23l.6-.28c.83-.38 1.37-.52 1.95-.46.6.05 1.51.45 2.11.96.6.5.73.91.47 1.27-.45.62-.57 2.12-.27 2.92.25.67.67.83 1.47.91.35.03.48.05.63.11.07.03.14.06.2.11.69.52.82 1.02.44 1.64-.34.55-.11 1.04.36 1.39.12.09.26.18.45.28l.45.25c.4.23.62.4.68.54.05.11 0 .28-.32.64-.91 1.01-1.21 1.97-.85 2.77.31.68 1.04 1.07 1.73 1.04-.08 0-.16-.05-.15-.04.08.17.12.54.08 1.08-.01.11-.02.16-.02.15.05-.08.14-.14.25-.16.04-.01.04-.01.01-.02-.06-.02-.08-.03-.3-.11-.23-.08-.37-.13-.54-.16-.82-.17-1.51.19-1.88 1.13-.23.58-.46.72-.89.7-.15-.01-.31-.04-.58-.1-.63-.13-.8-.16-1.11-.11-.57.09-.94.5-1.04 1.11-.19 1.1.29 1.58 1.45 2.12l.01.01c.61.29.7.38.69.58-.05.6.12 1.06.59 1.31.29.16.51.18 1.15.19h.2c.52.01 1.06.08 1.44.24.36.15.39.23.17.62-.31.55-.31.97-.15 1.93l.05.32c.11.86-.07 1.18-1.24 1.54l-.78.25c-.41.15-.7.3-.98.53-.22.18-.427.39-.68.69-.82.97-.87.99-1.54.6-.89-.51-2.276-1.06-3.63-1.45-1.82-.52-2.7-.66-3.1-.04l.59.39-.5-.49c-.23.24-.39.47-.51.71-.08.17-.092.22-.164.49-.01.02.04-.06.11-.1-.06.03-.29.08-.72.12-.65.07-.97.04-.99.03.08.06.12.15.13.21 0-.02 0-.07.02-.24.05-.62.01-1.02-.27-1.51-1.03-1.79-3.83-1.58-4.91.1-.08.12-.16.25-.26.41-.03.06-.16.27-.19.32-.63 1.06-1.03 1.44-1.67 1.47-.45.03-.44.04-.57-.27l-.01-.02c-.26-.59-.54-.92-1.18-1.07-.77-.19-1.28.06-1.76.61l-.12.15c-.05.05-.07.07-.05.06.06-.03.13-.04.18-.02-.11-.03-.42-.29-.88-.84-.13-.144-.25-.28-.39-.392-.36-.31-.66-.48-1.23-.71-.81-.34-1.113-.53-1.61-1.14-.18-.22-.2-.49-.083-.92.05-.19.11-.38.24-.69.36-.91.44-1.18.41-1.65-.05-.76-.59-1.26-1.51-1.48-.08-.02-.16-.07-.98-.64-.18-.13-.34-.24-.49-.33-1.18-.74-2.15-.88-2.74.18-.26.48-.5.76-.66.84-.03.02-.04.02-.07.01-.08-.02-.19-.11-.34-.28-.36-.4-.8-.55-1.27-.44-.184.05-.25.08-.56.24-.18.09-.25.11-.31.11l-.04 1.4c.35 0 .6-.08.96-.27.19-.1.22-.11.25-.12-.04.01-.12-.01-.09.02.63.71 1.37.935 2.07.59.5-.24.88-.71 1.278-1.42.03-.06.19-.04.76.325.13.08.26.17.437.29l.36.25c.14.1.24.17.35.24.29.19.52.31.75.36.37.09.42.137.42.21.01.16-.054.36-.32 1.02-.15.37-.23.59-.3.84-.23.83-.16 1.56.35 2.18.67.83 1.15 1.14 2.16 1.56.43.18.62.28.84.47.08.07.16.15.235.25 1.24 1.48 2.1 1.73 2.88.82l.13-.16c.16-.19.18-.2.353-.16.11.03.12.04.22.27l.01.02c.35.81.84 1.18 1.94 1.12 1.26-.064 1.95-.72 2.8-2.15l.19-.31.23-.37c.55-.86 2.05-.97 2.52-.16.1.18.12.33.09.68-.03.29-.03.38-.01.543.04.31.18.57.44.76.39.28.96.32 1.95.22 1.2-.12 1.63-.35 1.82-1.06.07-.29.11-.36.32-.58l.05-.05.03-.06c-.09.14-.2.21-.31.24-.02 0-.03.01-.02 0 .08 0 .21.01.38.04.38.06.9.18 1.48.34 1.26.36 2.55.87 3.32 1.31 1.31.76 2.09.55 3.32-.91.2-.24.35-.39.48-.5.15-.12.31-.2.58-.3l.72-.23c1.86-.57 2.43-1.57 2.22-3.08l-.052-.37c-.103-.63-.105-.84-.02-1 .67-1.18.25-2.15-.84-2.61-.583-.25-1.27-.34-1.953-.35h-.21c-.37-.01-.51-.02-.52-.03.07.03.12.1.15.16 0 .01 0-.02.01-.11.08-1.01-.39-1.45-1.5-1.97l-.02-.01c-.63-.3-.7-.37-.66-.6.01-.05.01-.05-.01-.03-.04.04-.09.06-.12.07.07-.01.19.01.59.09.35.07.56.11.81.12 1.03.06 1.82-.43 2.28-1.59.12-.29.14-.3.31-.27.08.02.17.05.33.11.28.1.3.11.42.14.22.06.42.08.624.036.57-.11.85-.586.9-1.26.13-1.594-.35-2.62-1.39-2.57-.15.01-.33-.09-.39-.202-.09-.2.04-.61.61-1.25.67-.74.88-1.48.56-2.17-.226-.48-.62-.8-1.26-1.17l-.46-.25c-.14-.07-.23-.13-.28-.17-.02-.01-.01 0 .02.05.06.14.05.31-.02.43.79-1.27.45-2.57-.8-3.51-.16-.12-.34-.22-.52-.29-.32-.13-.54-.17-1.03-.21-.21-.02-.29-.03-.33-.05.02 0 .05.036.05.04-.14-.38-.06-1.38.09-1.59.78-1.08.39-2.25-.7-3.173-.81-.69-2-1.22-2.88-1.29-.87-.1-1.62.11-2.66.58-1.03.47-1.19.52-1.25.46-1.03-.83-1.4-1.7-.98-2.91l.06-.16-.03-.17c-.15-1.065-.62-1.77-1.32-2.11-.22-.11-.44-.17-.68-.21-.15-.02-.26-.025-.45-.03H76c.02 0 .05.007.08.016.1.02.195.07.3.17-1.025-1.05-1.86-.78-2.905.254-.175.17-.195.19-.26.25-.135.13-.23.2-.29.22-.004 0 .03 0 .04.01-.175-.08-.21-.26-.16-1.17.03-.55.036-.83.01-1.19-.136-1.72-3.407-2.59-4.97-2.04l.845 1.01c.52-.93.51-2.09-.047-2.88-.66-.93-1.85-1.1-3.16-.42l.91.24c-1.814-2.74-3.76-2.78-5.47-.93 0-.003-.11.116-.155.17-.08.1-.16.2-.234.316-.28.41-.45.9-.48 1.49l.23-.49c-.504.45-.607.47-1 .34l-.027-.01c-.74-.248-1.248-.23-1.98.24-.16.1-.348-.01-.93-.658-.556-.62-.707-.77-1.03-.96-.238-.14-.487-.21-.75-.2-.91.03-1.378.38-1.98 1.19l-.06.08c-.31.41-.472.56-.74.64-.07.02-.14.03-.22.04-.322.01-.67-.12-1.41-.5-.85-.44-1.193-.59-1.706-.65-.76-.09-1.45.21-2 .92-.41.53-.41.53-.93.12l-.05-.05c-.83-.66-1.38-.87-2.19-.43-.38.21-.66.45-1.15.96l-.14.14c-.61.62-.87.76-1.22.66-1.82-.52-3.77 1.4-3.7 3.29 0-.08.02-.14.04-.19l-.04.04c-.03.04-.08.08-.15.13l-.22.17c-.56.44-.84.75-.91 1.29-.08.68.33 1.29 1.2 1.91l.4-.58.02-.7c-.61.25-.61.25-.64.39l-.05.12c-.01.032-.02.07-.03.12l-.05.25c-.06.33-.1.48-.14.67-.07.27-.13.48-.19.61-.01.03-.02.04 0 .02.12-.12.33-.2.57-.12-2.54-.84-5.15-.14-6.51 2.59-.07.14-.13.17-.6.19l-.12.01c-1.21.08-1.9.63-2.12 2.17-.15 1.064.56 2.154 1.53 2.9.01 0-.01-.05-.01-.067-.01.06-.07.17-.18.29-.12.13-.27.25-.4.31-.04.02-.07.03-.08.03.06-.01.15.01.25.07-.86-.58-1.44-.47-2.89.134-.32.14-.51.21-.71.27l.74.22c-1.07-1.26-3.24-1.11-4.7.03-.73.56-1.02 1.36-1.06 2.42-.01.26 0 .48.01.9.02.47.02.63 0 .8 0 .07-.02.12-.03.15.01-.01.02-.037.06-.06-.3.234-.53.47-.69.72-.34.52-.38.85-.34 1.86.02.44.02.72 0 1.064-.01.166-.12.34-.46.726l-.04.06c-.88 1-1.14 1.7-.59 2.8.73 1.47 2.25 2.05 3.3 1.11.19-.18.86.02 1.04.44.12.29-.01.88-.49 1.57-.73 1.04-.62 2.628.07 3.91.77 1.43 2.1 2.08 3.21 1.04.56-.53.97-.57 2.01-.36 1.01.2 1.44.23 2.05-.05.43-.2 1.21.316 1.48 1.04l.12.31.1.27c.08.216.14.35.19.48.19.45.4.75.73 1.045.24.22.55.42 1.03.7.68.39 1.41.3 2.19-.11.34-.18.66-.4 1.13-.75.81-.61.9-.68 1.13-.78l-.86-.23c1.31 1.81 2.49 1.83 4.19.82.65-.39.86-.48 1.02-.46 1.7.26 2.61-.42 2.82-1.69.03-.2.04-.325.06-.655l.02-.19c.01-.13.39-.25.91.17.41.326.95.14 1.13-.29.05-.11.06-.21.07-.34.01-.11.01-.16 0-.48-.01-.454 0-.74.03-1.04.06-.59.2-.93.37-1.01.16-.07.25-.06.48.06l.1.05.11.06c.93.49 1.65.55 2.72-.06.55-.31.8-.75 1.06-1.51l.06-.18c.15-.45.23-.59.3-.63 0 0-.12 0-.21-.07 0-.01.04.06.12.22l.03.04c.33.66.6.97 1.23.98l.02-1.4z" fill="#075828"/><path d="M108.116 74.5l-.324.043c-.47.062-.533.157-.387.617l1.412 4.466h.02l1.674-5.262h.26l1.9 5.252h.02c.43-1.32 1.04-3.533 1.22-4.287.15-.61.1-.74-.37-.79l-.3-.05v-.24h2.22v.24c-.69.08-.76.12-1.11 1.08-.09.26-.85 2.67-1.73 5.55h-.28l-1.9-5.12-.02.02-1.71 5.1h-.29l-1.82-5.62c-.28-.87-.44-.94-1.03-1.01v-.24h2.56v.24" fill="#060403"/><g transform="translate(119.513 73.717)"><mask id="b" fill="#fff"><use xlink:href="#a"/></mask><path d="M2.303 4.368h1.85l-.92-2.58h-.02l-.91 2.58zM4.3 7.114l.335-.042c.387-.042.43-.158.324-.482-.08-.25-.38-1.07-.67-1.824H2.16c-.105.273-.376 1.09-.523 1.53-.198.61-.104.744.367.787l.314.03v.242H.085v-.24c.68-.075.766-.137 1.13-1.07L3.37.48l.24-.095.743 1.99c.492 1.332.952 2.664 1.36 3.733.333.88.47.953 1.118 1.006v.24H4.3v-.24zm8.43-1.604c.166.493.7 1.657 1.808 1.657.794 0 1.296-.535 1.296-1.352 0-.892-.68-1.26-1.35-1.583-.344-.168-1.755-.66-1.755-1.92 0-1.036.78-1.927 2.15-1.927.29 0 .65.062.87.136.13.05.28.1.39.12.04.37.1.79.19 1.42l-.26.04c-.18-.63-.47-1.36-1.43-1.36-.74 0-1.13.55-1.13 1.17 0 .78.55 1.12 1.34 1.48.69.31 1.79.74 1.79 2.04 0 1.22-.99 2.11-2.32 2.11-.38 0-.73-.07-1-.15-.27-.08-.45-.17-.58-.22-.09-.27-.2-1.01-.31-1.58l.26-.04" fill="#060403" mask="url(#b)"/></g><path d="M147.582 77.268v-1.49c0-1.14-.084-1.214-.92-1.278v-.24h2.76v.24c-.878.064-.962.137-.962 1.28v3.773c0 1.142.084 1.215.94 1.278v.25h-2.823v-.24c.92-.06 1.005-.13 1.005-1.27V77.7h-3.63v1.865c0 1.14.085 1.215.942 1.278v.244h-2.76v-.242c.857-.06.94-.134.94-1.276v-3.78c0-1.15-.083-1.22-.982-1.28v-.24h2.76v.24c-.815.06-.9.13-.9 1.28v1.49h3.63m9.608 2.28c0 1.14.085 1.21.943 1.28v.25h-2.76v-.24c.856-.06.94-.14.94-1.28v-3.78c0-1.14-.084-1.22-.94-1.28v-.24h2.76v.24c-.858.06-.942.14-.942 1.28v3.77" fill="#060403"/><g transform="translate(163.545 73.717)"><mask id="d" fill="#fff"><use xlink:href="#c"/></mask><path d="M6.75 7.43h-.273l-4.54-5.525h-.02v2.673c0 1.1.042 1.666.084 1.99.06.368.34.515 1.03.546v.24H.52v-.24c.573-.02.846-.178.9-.545.04-.33.08-.9.08-2V2.3c0-.754-.01-.923-.2-1.163C1.103.887.82.814.38.782v-.24h1.527l4.403 5.28h.02V3.32c0-1.1-.042-1.667-.083-1.992C6.195.962 5.912.815 5.222.783v-.24h2.51v.24c-.575.02-.847.18-.9.545-.042.325-.083.89-.083 1.992v4.11m12.63-5.117C19.08.983 18.22.73 17.29.73c-1.62 0-2.657 1.112-2.657 3.093 0 1.593.753 3.344 2.823 3.344.377 0 .733-.043.983-.137.23-.094.3-.168.3-.67v-.934c0-.712-.04-.786-1.18-.87v-.24h2.68v.24c-.59.095-.63.127-.63.87v.714c0 .377.01.712.06.953-.65.178-1.5.42-2.28.42-2.21 0-3.81-1.437-3.81-3.49 0-2.37 1.89-3.638 3.86-3.638.91 0 1.63.178 2 .272.03.357.08.902.16 1.625l-.25.03m9.95 3.524c0 1.142.08 1.215 1.1 1.278v.24h-3.05v-.24c.98-.063 1.06-.136 1.06-1.278V.888h-.49c-.93 0-1.22.137-1.37.335-.12.147-.24.44-.37.902h-.26c.04-.64.1-1.31.12-1.845h.14c.15.24.26.262.54.262h4.29c.27 0 .32-.062.49-.262h.15c.01.44.06 1.205.11 1.813l-.26.032c-.11-.503-.22-.797-.38-.964-.18-.19-.5-.27-1.15-.27h-.7v4.95M40.69.73c-1.232 0-2.28 1.018-2.28 2.99 0 2.02 1.057 3.447 2.585 3.447 1.254 0 2.28-.975 2.28-2.925 0-2.263-1.088-3.51-2.584-3.51zm3.598 3.125c0 2.18-1.516 3.658-3.513 3.658-1.976 0-3.378-1.51-3.378-3.49 0-1.763 1.23-3.638 3.56-3.638 1.807 0 3.323 1.404 3.323 3.47z" fill="#060403" mask="url(#d)"/></g><path d="M220.07 81.146h-.27l-4.54-5.524h-.02v2.673c0 1.1.04 1.666.083 1.992.052.366.334.513 1.025.544v.25h-2.51v-.24c.575-.02.847-.17.9-.54.04-.32.083-.89.083-1.99v-2.28c0-.75-.01-.92-.19-1.16-.2-.25-.48-.32-.92-.35v-.24h1.53l4.4 5.29h.03v-2.51c0-1.1-.04-1.66-.08-1.99-.05-.36-.34-.51-1.02-.54v-.24h2.51v.24c-.58.03-.85.18-.9.55-.04.33-.08.89-.08 1.99v4.11" fill="#060403"/><g transform="translate(231.936 73.717)"><mask id="f" fill="#fff"><use xlink:href="#e"/></mask><path d="M2.262 6.013c0 .483.03.692.177.818.13.12.38.18.74.18 2.19 0 3.04-1.52 3.04-3.09 0-1.06-.23-2.18-1.28-2.72-.41-.22-1-.35-1.84-.35-.52 0-.67.03-.75.07-.07.02-.1.08-.1.29v4.81zm1.15-5.47c1.244 0 2.248.25 2.917.88.52.492.91 1.257.91 2.222 0 2.59-1.98 3.71-4.44 3.71H.4v-.24c.9-.064.983-.137.983-1.28V2.062C1.383.92 1.3.848.483.784v-.24h2.93zM18.835 2.26C18.52 1.057 17.852.73 16.827.73c-1.882 0-2.72 1.427-2.72 3.072 0 2.023 1.037 3.365 2.73 3.365 1.172 0 1.716-.567 2.23-1.666l.26.03c-.137.46-.367 1.29-.534 1.69-.292.08-1.233.3-1.966.3-2.645 0-3.754-1.8-3.754-3.47 0-2.16 1.663-3.66 3.953-3.66.89 0 1.59.21 1.882.27.084.58.126 1.04.19 1.59l-.263.02" fill="#060403" mask="url(#f)"/></g><path d="M253.4 48.005c0 .136.018.136.23.136.31 0 .388-.23.388-.38 0-.31-.155-.48-.367-.48-.23 0-.25.04-.25.16v.59zm-.545-.37c0-.252-.057-.37-.213-.388h-.078c-.038-.077-.038-.194.02-.213.407-.02.757-.04 1.086-.04.427 0 .97.098.97.66 0 .274-.195.468-.35.545-.038.02-.038.05 0 .13.194.41.35.68.485.77.078.06.117.1.175.11.038 0 .038.11 0 .13-.097.02-.175.02-.272.02-.31 0-.543-.12-.717-.41-.09-.16-.17-.31-.27-.49-.04-.08-.09-.12-.17-.12-.09 0-.11.05-.11.09v.27c0 .29 0 .37.27.41l.06.02c.04.02.04.17 0 .19-.19 0-.35-.02-.58-.02-.21 0-.39.02-.56.02-.05-.02-.05-.17-.02-.19l.08-.02c.21-.06.21-.1.21-.41v-1.1zm-1.105.564c0 1.12.872 2.04 1.92 2.04 1.047 0 1.92-.92 1.92-2.04 0-1.15-.873-2.04-1.92-2.04-1.048 0-1.92.89-1.92 2.04zm4.44 0c0 1.36-1.124 2.46-2.52 2.46-1.397 0-2.522-1.11-2.522-2.47s1.125-2.47 2.522-2.47c1.396 0 2.52 1.11 2.52 2.47z" fill="#1A1918"/></g></svg>